<?xml version="1.0" encoding="utf-8"?>
<!-- Generator: Adobe Illustrator 23.0.4, SVG Export Plug-In . SVG Version: 6.00 Build 0)  -->
<svg version="1.1" id="Réteg_1" xmlns="http://www.w3.org/2000/svg" xmlns:xlink="http://www.w3.org/1999/xlink" x="0px" y="0px"
	 viewBox="0 0 260 38" style="enable-background:new 0 0 260 38;" xml:space="preserve">
<style type="text/css">
	.st0{fill:#BBBBBB;}
	.st1{opacity:0.8;fill-rule:evenodd;clip-rule:evenodd;fill:#FFFFFF;}
	.st2{fill-rule:evenodd;clip-rule:evenodd;fill:#FFFFFF;}
	.st3{fill-rule:evenodd;clip-rule:evenodd;fill:#BBBBBB;}
</style>
<path id="Shape" class="st0" d="M34.9,12.3c-0.7-0.3-1.9-0.6-3.4-0.6c-3.7,0-6.4,1.9-6.4,4.7c0,2,1.9,3.2,3.3,3.8
	c1.5,0.7,2,1.1,2,1.8c0,0.9-1.2,1.4-2.3,1.4c-1.5,0-2.3-0.2-3.6-0.7L24,22.4l-0.5,3.2c0.9,0.4,2.5,0.7,4.2,0.8c4,0,6.6-1.9,6.6-4.8
	c0-1.6-1-2.8-3.2-3.8C29.8,17,29,16.5,29,15.9c0-0.6,0.7-1.2,2.2-1.2c1.2,0,2.1,0.3,2.8,0.5l0.3,0.2L34.9,12.3"/>
<path id="Shape_1_" class="st0" d="M44.5,11.9h-2.9c-0.9,0-1.6,0.3-2,1.2l-5.6,13h4c0,0,0.6-1.7,0.8-2.1c0.4,0,4.3,0,4.8,0
	c0.1,0.5,0.5,2.1,0.5,2.1h3.5L44.5,11.9L44.5,11.9z M39.9,21.1c0.3-0.8,1.5-4,1.5-4c0,0,0.3-0.8,0.5-1.4l0.3,1.2
	c0,0,0.7,3.4,0.9,4.1H39.9L39.9,21.1L39.9,21.1L39.9,21.1z"/>
<path id="Shape_2_" class="st0" d="M17.4,26.1l2.4-14.2h3.8l-2.4,14.2H17.4z"/>
<path id="Shape_3_" class="st0" d="M14.2,11.9l-3.7,9.7l-0.4-2c-0.7-2.3-2.8-4.7-5.2-5.9l3.4,12.4l4,0l6-14.1H14.2"/>
<path id="Shape_4_" class="st0" d="M7.2,11.9H0.7l-0.1,0.3c5.1,1.3,8.4,4.3,9.8,7.9l-1.4-7C8.8,12.3,8.1,12,7.2,11.9"/>
<g>
	<g>
		<path class="st0" d="M258.5,12.4h-1.5c0,0,0,0,0,0l0,0c-0.3,0-0.7,0.3-0.8,0.6c0,0,0,0,0,0.1c0,0,0,0.2-0.1,0.5l-2.1,9.7
			c0,0.2-0.1,0.3-0.1,0.4l0,0c-0.1,0.3,0.1,0.6,0.5,0.6l0,0h1.6c0.3,0,0.7-0.3,0.8-0.6c0,0,0-0.1,0-0.1l2.3-10.5l0,0
			C259.1,12.7,258.8,12.4,258.5,12.4z"/>
	</g>
</g>
<path class="st0" d="M252.5,15.6c-0.7-0.4-1.7-0.6-3.1-0.6c-0.7,0-1.4,0.1-2.1,0.2c-0.5,0.1-0.6,0.1-0.9,0.2
	c-0.7,0.1-0.8,0.8-0.8,0.8l-0.2,0.9c-0.1,0.6,0.2,0.5,0.3,0.5c0.3-0.1,0.4-0.2,1-0.3c0.6-0.1,1.2-0.2,1.6-0.2c0.7,0,1.2,0.1,1.6,0.2
	c0.4,0.2,0.5,0.4,0.5,0.8c0,0.1,0,0.2,0,0.2c0,0.1-0.1,0.1-0.2,0.2c-1,0.1-1.7,0.1-2.6,0.3c-0.8,0.1-1.6,0.3-2.2,0.6
	c-0.7,0.3-1.1,0.7-1.5,1.2c-0.3,0.5-0.5,1.1-0.5,1.8c0,0.7,0.2,1.2,0.7,1.6c0.5,0.4,1.1,0.6,1.8,0.6c0.5,0,0.8,0,1.1-0.1
	c0.3-0.1,0.5-0.2,0.8-0.3c0.2-0.1,0.5-0.2,0.7-0.4c0.3-0.2,0.4-0.3,0.7-0.4l0,0l-0.1,0.3c0,0,0,0,0,0l0,0c-0.1,0.3,0.1,0.6,0.5,0.6
	l0,0h0l0,0c0.2,0,1,0,1.3,0h0.2c0,0,0,0,0,0c0.3,0,0.7-0.3,0.7-0.7l1.3-5.5c0-0.1,0.1-0.3,0.1-0.4c0-0.2,0-0.3,0-0.4
	C253.5,16.5,253.1,15.9,252.5,15.6z M249.4,22.1c-0.2,0.1-0.4,0.3-0.7,0.3c-0.3,0.1-0.6,0.2-0.9,0.2c-0.4,0-0.8-0.1-1-0.2
	c-0.2-0.1-0.3-0.3-0.3-0.6c0-0.4,0.1-0.6,0.3-0.8c0.2-0.2,0.4-0.4,0.7-0.5c0.3-0.1,0.7-0.2,1.1-0.3c0.4,0,1.2-0.1,1.3-0.1
	c0.1,0,0.2-0.1,0.1,0.2c0,0.1-0.2,1-0.3,1.5C249.7,21.8,249.5,22,249.4,22.1z"/>
<path class="st0" d="M240.4,17.6c-0.5,0.4-1.2,0.6-2.2,0.6h-0.4c-0.4,0-0.6-0.3-0.5-0.7l0.5-2.2c0.1-0.4,0.5-0.7,0.8-0.7l0.6,0
	c0.7,0,1.2,0.1,1.5,0.3c0.3,0.2,0.5,0.6,0.5,1C241.2,16.6,240.9,17.2,240.4,17.6 M244.1,14.1c-0.2-0.4-0.5-0.8-1-1
	c-0.4-0.3-0.9-0.4-1.5-0.6c-0.6-0.1-1.3-0.2-2-0.2l-3.6,0c-0.4,0-0.7,0.3-0.8,0.7l-2.4,10.6c-0.1,0.4,0.2,0.7,0.5,0.7l1.7,0
	c0.4,0,0.7-0.3,0.8-0.7l0.6-2.6c0.1-0.4,0.5-0.7,0.8-0.7h0.5c2.1,0,3.8-0.4,4.9-1.3c1.2-0.9,1.8-2,1.8-3.4
	C244.5,15,244.4,14.5,244.1,14.1"/>
<path class="st0" d="M230.7,15.1c-0.4,0-0.9,0.3-1.1,0.7c0,0-2.5,4.3-2.7,4.7c-0.1,0.2-0.3,0.1-0.3,0c0-0.1-0.8-4.6-0.8-4.6
	c-0.1-0.4-0.5-0.7-0.9-0.7l-1.5,0c-0.4,0-0.6,0.3-0.5,0.7c0,0,1.2,6.7,1.4,8.3c0.1,0.9,0,1,0,1l-1.5,2.7c-0.2,0.4-0.1,0.7,0.3,0.7
	l1.8,0c0.4,0,0.9-0.3,1.1-0.7l6.9-11.7c0,0,0.7-1,0.1-1C232.4,15.1,230.7,15.1,230.7,15.1"/>
<path class="st0" d="M221.1,15.6c-0.7-0.4-1.7-0.6-3.1-0.6c-0.7,0-1.4,0.1-2.1,0.2c-0.5,0.1-0.6,0.1-0.9,0.2
	c-0.7,0.1-0.8,0.8-0.8,0.8L214,17c-0.1,0.6,0.2,0.5,0.3,0.5c0.3-0.1,0.4-0.2,1-0.3c0.6-0.1,1.2-0.2,1.6-0.2c0.7,0,1.2,0.1,1.6,0.2
	c0.4,0.2,0.5,0.4,0.5,0.8c0,0.1,0,0.2,0,0.2c0,0.1-0.1,0.1-0.3,0.2c-1,0.1-1.7,0.1-2.6,0.3c-0.8,0.1-1.6,0.3-2.2,0.6
	c-0.7,0.3-1.1,0.7-1.5,1.2c-0.3,0.5-0.5,1.1-0.5,1.8c0,0.7,0.2,1.2,0.7,1.6c0.5,0.4,1.1,0.6,1.8,0.6c0.5,0,0.8,0,1.1-0.1
	c0.3-0.1,0.5-0.2,0.8-0.3c0.2-0.1,0.5-0.2,0.7-0.4c0.3-0.2,0.4-0.3,0.7-0.4l0,0l-0.1,0.3c0,0,0,0,0,0l0,0c-0.1,0.3,0.1,0.6,0.5,0.6
	l0,0h0l0,0c0.2,0,1,0,1.3,0h0.2c0,0,0,0,0,0c0.3,0,0.7-0.3,0.7-0.6l1.3-5.5c0-0.1,0.1-0.3,0.1-0.4c0-0.2,0-0.3,0-0.4
	C222,16.5,221.7,15.9,221.1,15.6z M218,22.1c-0.2,0.1-0.4,0.3-0.7,0.3c-0.3,0.1-0.6,0.2-0.9,0.2c-0.4,0-0.8-0.1-1-0.2
	c-0.2-0.1-0.3-0.3-0.3-0.6c0-0.4,0.1-0.6,0.3-0.8c0.2-0.2,0.4-0.4,0.7-0.5c0.3-0.1,0.7-0.2,1.1-0.3c0.4,0,1.2-0.1,1.3-0.1
	c0.1,0,0.2-0.1,0.1,0.2c0,0.1-0.2,1-0.3,1.5C218.2,21.8,218.1,22,218,22.1z"/>
<path class="st0" d="M209,17.5c-0.5,0.4-1.2,0.6-2.2,0.6h-0.4c-0.4,0-0.6-0.3-0.5-0.7l0.5-2.2c0.1-0.4,0.5-0.7,0.8-0.7l0.6,0
	c0.7,0,1.2,0.1,1.5,0.3c0.3,0.2,0.5,0.6,0.5,1C209.8,16.6,209.5,17.1,209,17.5 M212.7,14c-0.2-0.4-0.5-0.8-0.9-1
	c-0.4-0.3-0.9-0.4-1.5-0.6c-0.6-0.1-1.3-0.2-2-0.2l-3.6,0c-0.4,0-0.7,0.3-0.8,0.7l-2.4,10.6c-0.1,0.4,0.2,0.7,0.5,0.7h1.7
	c0.4,0,0.7-0.3,0.8-0.7L205,21c0.1-0.4,0.4-0.7,0.8-0.7h0.5c2.1,0,3.8-0.4,4.9-1.3c1.2-0.9,1.8-2,1.8-3.4
	C213,15,212.9,14.5,212.7,14"/>
<path class="st0" d="M172.1,11.7v1.3h-1.3c-0.5,0-0.8,0.1-1.1,0.3c-0.2,0.3-0.4,0.7-0.4,1.3c0,0.6,0.1,1.1,0.4,1.4
	c0.2,0.2,0.6,0.3,0.9,0.3h0.6l1.9-4.6h2l2.3,5.5v-5.5h2.1l2.4,4.1v-4.1h1.4v5.9h0h-1.9l-2.6-4.4v4.4h-2.8l-0.5-1.3h-2.8l-0.5,1.3
	h-1.6c-0.6,0-1.5-0.2-2-0.7c-0.4-0.5-0.7-1.2-0.7-2.2c0-0.9,0.1-1.7,0.7-2.3c0.4-0.5,1.1-0.7,2.1-0.7H172.1 M173.3,15h1.9l-0.9-2.3
	L173.3,15 M167.3,11.7v5.9h-1.4v-5.9H167.3 M162.8,11.7c0.7,0,1.2,0,1.6,0.3c0.4,0.3,0.7,0.7,0.7,1.3c0,0.9-0.6,1.4-1,1.5
	c0.3,0.1,0.5,0.3,0.6,0.5c0.2,0.3,0.2,0.5,0.2,1v1.2h-1.4v-0.8c0-0.3,0-0.8-0.2-1.1c-0.2-0.2-0.5-0.3-1-0.3H161v2.1h-1.3v-5.9H162.8
	 M161,14.2h1.7c0.3,0,0.5,0,0.7-0.1c0.2-0.1,0.2-0.3,0.2-0.5c0-0.3-0.1-0.4-0.2-0.5c-0.2-0.1-0.4-0.1-0.7-0.1H161V14.2 M158.7,11.7
	v1.2h-3.2v1h3.1v1.2h-3.1v1.2h3.2v1.2h-4.5v-5.9H158.7 M153.2,11.7v5.9h-1.4v-4.6l-2,4.6h-1.2l-2-4.6v4.6h-2.8l-0.5-1.3h-2.8
	l-0.5,1.3h-1.5l2.4-5.9h2l2.3,5.5v-5.5h2.2l1.8,4l1.7-4H153.2 M141,15h1.9l-0.9-2.3L141,15 M176.3,21.8V23h-3.2v1.1h3.1v1.2h-3.1
	v1.2h3.2v1.2h-4.5v-5.9H176.3 M186.9,21.8V23h-2.5c-0.2,0-0.4,0-0.5,0.1c-0.1,0.1-0.2,0.3-0.2,0.5c0,0.2,0.1,0.3,0.3,0.4
	c0.2,0,0.3,0.1,0.5,0.1h0.7c0.8,0,1.3,0.2,1.6,0.5c0.2,0.3,0.4,0.7,0.4,1.3c0,1.3-0.8,1.8-2.1,1.8h-2.6v-1.3h2.6
	c0.2,0,0.4,0,0.5-0.1c0.1-0.1,0.2-0.2,0.2-0.4c0-0.2-0.1-0.3-0.2-0.4c-0.1-0.1-0.2-0.1-0.5-0.1c-1.3,0-2.8,0-2.8-1.8
	c0-0.8,0.5-1.8,1.9-1.8H186.9 M181.6,21.8V23h-2.5c-0.2,0-0.4,0-0.5,0.1c-0.2,0.1-0.2,0.3-0.2,0.5c0,0.2,0.1,0.3,0.3,0.4
	c0.2,0,0.3,0.1,0.5,0.1h0.7c0.8,0,1.3,0.2,1.6,0.5c0.2,0.3,0.4,0.7,0.4,1.3c0,1.3-0.8,1.8-2.1,1.8h-2.6v-1.3h2.6
	c0.2,0,0.4,0,0.5-0.1c0.1-0.1,0.2-0.2,0.2-0.4c0-0.2-0.1-0.3-0.2-0.4c-0.1-0.1-0.2-0.1-0.5-0.1c-1.3,0-2.8,0-2.8-1.8
	c0-0.8,0.5-1.8,1.9-1.8H181.6 M168.6,21.8c0.7,0,1.2,0,1.7,0.3c0.4,0.3,0.7,0.6,0.7,1.3c0,0.9-0.6,1.4-1,1.5
	c0.3,0.1,0.6,0.3,0.7,0.5c0.2,0.3,0.2,0.5,0.2,1.1v1.1h-1.3v-0.7c0-0.4,0-0.9-0.2-1.2c-0.2-0.2-0.5-0.3-1-0.3h-1.5v2.1h-1.4v-5.9
	H168.6 M166.9,24.3l1.7,0c0.2,0,0.4,0,0.6-0.1c0.2-0.1,0.3-0.3,0.3-0.6c0-0.3-0.1-0.4-0.3-0.5c-0.2-0.1-0.4-0.1-0.6-0.1h-1.7V24.3
	 M162.6,21.8c1.1,0,2.3,0.3,2.3,1.9c0,1.6-1.2,2-2.4,2h-1.7v2h-2.6l-1.7-1.9l-1.7,1.9h-5.4v-5.9h5.5l1.7,1.9l1.7-1.9H162.6
	 M159.4,27.1v-4.7l-2.1,2.3L159.4,27.1 M150.7,24.1h3v1.2h-3v1.2h3.4l1.5-1.7l-1.5-1.7h-3.4V24.1 M160.8,24.5h1.8
	c0.5,0,0.8-0.3,0.8-0.8c0-0.5-0.3-0.7-0.8-0.7h-1.8V24.5 M173.1,10.7h-1h-1.3c-1,0-1.9,0.2-2.5,0.7v-0.7h-1h-1.4h-1V11
	c-0.7-0.4-1.3-0.4-2.1-0.4h-3.1h-1h-4.5h-1h-2.2h-0.7l-0.3,0.6l-0.8,1.8l-0.8-1.8l-0.3-0.6h-0.7h-2.2h-1v1v0.4l-0.4-0.8l-0.3-0.6
	H143h-2h-0.7l-0.3,0.6l-2.4,5.9l-0.6,1.4h1.5h1.5h0.7l0.3-0.6l0.3-0.7h1.5l0.3,0.7l0.3,0.6h0.7h2.8h1v-0.7l0,0.1l0.3,0.6h0.7h1.2
	h0.7l0.3-0.6l0-0.1v0.7h1h1.4h1h4.5h1h1.3h1v-1v-1.1h0.4c0.1,0,0.1,0,0.2,0c0,0.1,0,0.2,0,0.2c0,0,0,0.1,0,0.1v0.8v1h1h1.4h1v0h1.2
	h1v-0.7c0.8,0.6,1.9,0.7,2.3,0.7h1.6h0.7l0.3-0.6l0.3-0.7h1.5l0.3,0.7l0.3,0.6h0.7h2.8h1v-1v-0.6l0.7,1.1l0.3,0.5h0.6h1.9h1l0-1
	v-5.9v-1h-1H182h-1v1V12l-0.5-0.8l-0.3-0.5h-0.6h-2.1h-1v1V12l-0.3-0.8l-0.3-0.6h-0.7h-2L173.1,10.7L173.1,10.7L173.1,10.7z
	 M170.5,14c0,0,0.1,0,0.3,0h0.4l-0.6,1.3c-0.1,0-0.1,0-0.1,0c0-0.1-0.1-0.3-0.1-0.6C170.4,14.2,170.4,14.1,170.5,14L170.5,14z
	 M177.3,20.8h-1h-4.5h-1v0.4c-0.7-0.4-1.4-0.4-2.1-0.4h-3.1h-1v0.4c-0.5-0.3-1.2-0.4-1.9-0.4h-4.3h-0.5l-0.3,0.3l-1,1.1l-0.9-1.1
	l-0.3-0.4h-0.5h-5.5h-1v1v5.9v1h1h5.4h0.5l0.3-0.3l1-1.1l0.9,1.1l0.3,0.4h0.5h2.6h1v-1v-1h0.7c0.9,0,1.5-0.2,2-0.4v1.4v1h1h1.4h1v-1
	v-1.1h0.4c0.1,0,0.1,0,0.2,0c0,0.1,0,0.3,0,0.4v0.7v1h1h1.3h1v0h4.4h1h2.4c0.6,0,1.2-0.1,1.7-0.3v0.3h1h2.6c2,0,3.2-1.1,3.2-2.9
	c0-0.7-0.2-1.3-0.5-1.7h0.2v-1v-1.3v-1h-1h-2.7c-0.7,0-1.2,0.2-1.6,0.4v-0.4h-1h-2.7c-0.7,0-1.2,0.2-1.6,0.4V20.8L177.3,20.8z"/>
<polygon class="st1" points="105.1,37.9 106.1,37.9 107,37.8 108,37.7 108.9,37.5 109.8,37.3 110.7,37.1 111.6,36.8 112.5,36.4 
	113.3,36 114.1,35.6 114.9,35.2 115.7,34.7 116.4,34.1 117.1,33.6 117.8,33 118.5,32.4 119.1,31.7 119.7,31 120.2,30.3 120.8,29.6 
	121.3,28.8 121.7,28 122.1,27.2 122.5,26.4 122.9,25.5 123.2,24.6 123.4,23.7 123.6,22.8 123.8,21.9 123.9,20.9 124,20 124,19 
	124,18 123.9,17.1 123.8,16.1 123.6,15.2 123.4,14.3 123.2,13.4 122.9,12.5 122.5,11.7 122.1,10.9 121.7,10.1 121.3,9.3 120.8,8.5 
	120.2,7.8 119.7,7.1 119.1,6.4 118.5,5.7 117.8,5.1 117.1,4.5 116.4,3.9 115.7,3.4 114.9,2.9 114.1,2.5 113.3,2.1 112.5,1.7 
	111.6,1.3 110.7,1 109.8,0.8 108.9,0.6 108,0.4 107,0.3 106.1,0.2 105.1,0.2 104.1,0.2 103.2,0.3 102.2,0.4 101.3,0.6 100.4,0.8 
	99.5,1 98.6,1.3 97.8,1.7 96.9,2.1 96.1,2.5 95.4,2.9 94.6,3.4 93.8,3.9 93.1,4.5 92.5,5.1 91.8,5.7 91.2,6.4 90.6,7.1 90,7.8 
	89.5,8.5 89,9.3 88.6,10.1 88.1,10.9 87.8,11.7 87.4,12.5 87.1,13.4 86.9,14.3 86.7,15.2 86.5,16.1 86.4,17.1 86.3,18 86.3,19 
	86.3,20 86.4,20.9 86.5,21.9 86.7,22.8 86.9,23.7 87.1,24.6 87.4,25.5 87.8,26.4 88.1,27.2 88.6,28 89,28.8 89.5,29.6 90,30.3 
	90.6,31 91.2,31.7 91.8,32.4 92.5,33 93.1,33.6 93.8,34.1 94.6,34.7 95.4,35.2 96.1,35.6 96.9,36 97.8,36.4 98.6,36.8 99.5,37.1 
	100.4,37.3 101.3,37.5 102.2,37.7 103.2,37.8 104.1,37.9 105.1,37.9 105.1,37.9 "/>
<polygon class="st2" points="79.9,37.9 80.9,37.9 81.8,37.8 82.8,37.7 83.7,37.5 84.6,37.3 85.5,37.1 86.4,36.8 87.2,36.4 88.1,36 
	88.9,35.6 89.7,35.2 90.4,34.7 91.2,34.1 91.9,33.6 92.5,33 93.2,32.4 93.8,31.7 94.4,31 95,30.3 95.5,29.6 96,28.8 96.4,28 
	96.9,27.2 97.2,26.4 97.6,25.5 97.9,24.6 98.1,23.7 98.3,22.8 98.5,21.9 98.6,20.9 98.7,20 98.7,19 98.7,18 98.6,17.1 98.5,16.1 
	98.3,15.2 98.1,14.3 97.9,13.4 97.6,12.5 97.2,11.7 96.9,10.9 96.4,10.1 96,9.3 95.5,8.5 95,7.8 94.4,7.1 93.8,6.4 93.2,5.7 
	92.5,5.1 91.9,4.5 91.2,3.9 90.4,3.4 89.7,2.9 88.9,2.5 88.1,2.1 87.2,1.7 86.4,1.3 85.5,1 84.6,0.8 83.7,0.6 82.8,0.4 81.8,0.3 
	80.9,0.2 79.9,0.2 78.9,0.2 78,0.3 77,0.4 76.1,0.6 75.2,0.8 74.3,1 73.4,1.3 72.5,1.7 71.7,2.1 70.9,2.5 70.1,2.9 69.3,3.4 
	68.6,3.9 67.9,4.5 67.2,5.1 66.5,5.7 65.9,6.4 65.3,7.1 64.8,7.8 64.2,8.5 63.7,9.3 63.3,10.1 62.9,10.9 62.5,11.7 62.1,12.5 
	61.8,13.4 61.6,14.3 61.4,15.2 61.2,16.1 61.1,17.1 61,18 61,19 61,20 61.1,20.9 61.2,21.9 61.4,22.8 61.6,23.7 61.8,24.6 
	62.1,25.5 62.5,26.4 62.9,27.2 63.3,28 63.7,28.8 64.2,29.6 64.8,30.3 65.3,31 65.9,31.7 66.5,32.4 67.2,33 67.9,33.6 68.6,34.1 
	69.3,34.7 70.1,35.2 70.9,35.6 71.7,36 72.5,36.4 73.4,36.8 74.3,37.1 75.2,37.3 76.1,37.5 77,37.7 78,37.8 78.9,37.9 79.9,37.9 
	79.9,37.9 "/>
<polyline class="st0" points="83.5,18.4 83.5,18.4 83.5,18.4 83.4,18.4 83.3,18.4 83.2,18.4 83.1,18.4 83,18.4 83,18.4 82.9,18.3 
	82.8,18.3 82.7,18.3 82.6,18.3 82.4,18.3 82.3,18.3 82.2,18.3 82,18.3 81.8,18.3 81.8,18.3 81.7,18.4 81.6,18.4 81.5,18.4 
	81.4,18.5 81.3,18.5 81.2,18.6 81.1,18.6 81.1,18.7 81,18.7 81,18.8 81,18.9 81,19 81,19 81,19.1 81.1,19.2 81.1,19.3 81.1,19.3 
	81.3,19.4 81.4,19.5 81.6,19.6 81.8,19.7 82,19.7 82.2,19.8 82.4,19.9 82.6,20 82.8,20.1 83,20.2 83.1,20.4 83.3,20.6 83.4,20.8 
	83.4,21.1 83.5,21.4 83.4,21.8 83.4,21.8 83.4,22.1 83.3,22.4 83.2,22.6 83.1,22.8 82.9,23 82.8,23.2 82.6,23.3 82.4,23.4 
	82.2,23.5 82,23.6 81.8,23.7 81.6,23.7 81.3,23.8 81.1,23.8 80.9,23.8 80.7,23.8 80.7,23.8 80.4,23.8 80.2,23.8 80,23.8 79.8,23.8 
	79.6,23.8 79.4,23.8 79.2,23.8 79.1,23.7 79,23.7 78.8,23.7 78.7,23.7 78.6,23.7 78.5,23.6 78.4,23.6 78.3,23.6 78.2,23.5 
	78.5,22.1 78.5,22.1 78.5,22.1 78.6,22.1 78.7,22.2 78.8,22.2 78.9,22.2 79.1,22.2 79.2,22.3 79.3,22.3 79.5,22.3 79.7,22.4 
	79.8,22.4 80,22.4 80.2,22.4 80.4,22.4 80.6,22.4 80.8,22.4 80.8,22.4 80.9,22.4 81.1,22.3 81.2,22.2 81.3,22.2 81.4,22.1 81.4,22 
	81.4,21.9 81.5,21.8 81.5,21.8 81.5,21.6 81.4,21.4 81.3,21.3 81.1,21.2 81,21.1 80.7,21 80.5,20.9 80.2,20.8 80,20.7 79.7,20.6 
	79.5,20.4 79.3,20.2 79.2,20 79,19.7 79,19.3 79,18.9 79,18.9 79,18.7 79.1,18.4 79.1,18.2 79.2,18 79.3,17.8 79.4,17.7 79.6,17.5 
	79.7,17.4 79.9,17.2 80.1,17.1 80.3,17 80.6,17 80.9,16.9 81.2,16.9 81.5,16.8 81.9,16.8 81.9,16.8 82.1,16.8 82.4,16.8 82.6,16.8 
	82.7,16.9 82.9,16.9 83,16.9 83.2,16.9 83.3,16.9 83.4,16.9 83.5,16.9 83.6,17 83.6,17 83.7,17 83.8,17 83.8,17 83.9,17 83.5,18.4 
	"/>
<polyline class="st0" points="85,15.4 86.8,15.4 86.5,17 87.6,17 87.4,18.4 86.3,18.4 85.7,21.9 85.7,21.9 85.6,22.1 85.7,22.2 
	85.7,22.2 85.8,22.3 85.9,22.4 86.1,22.4 86.2,22.4 86.4,22.4 86.4,22.4 86.5,22.4 86.6,22.4 86.7,22.4 86.8,22.4 86.9,22.3 
	87,22.3 87,22.3 87,22.3 86.8,23.5 86.8,23.5 86.8,23.5 86.7,23.5 86.7,23.6 86.6,23.6 86.6,23.6 86.5,23.6 86.5,23.7 86.4,23.7 
	86.4,23.7 86.3,23.7 86.2,23.7 86.1,23.7 86.1,23.7 86,23.8 85.9,23.8 85.8,23.8 85.3,23.8 85.3,23.8 85,23.8 84.8,23.7 84.6,23.7 
	84.4,23.7 84.3,23.6 84.2,23.5 84,23.5 84,23.4 83.9,23.3 83.9,23.2 83.8,23.1 83.8,22.9 83.8,22.8 83.8,22.7 83.8,22.5 83.8,22.4 
	85,15.4 "/>
<polyline class="st0" points="89,20.8 89,20.8 89,20.9 89,21 89,21.1 89,21.3 89.1,21.4 89.1,21.5 89.2,21.6 89.3,21.7 89.4,21.8 
	89.5,21.9 89.6,22 89.7,22.1 89.8,22.2 89.9,22.2 90,22.3 90.2,22.3 90.2,22.3 90.3,22.3 90.5,22.3 90.7,22.4 90.8,22.4 91,22.4 
	91.2,22.4 91.3,22.4 91.5,22.4 91.7,22.3 91.8,22.3 92,22.3 92.2,22.2 92.4,22.1 92.6,22.1 92.7,22 92.9,21.9 92.7,23.4 92.7,23.4 
	92.6,23.5 92.5,23.5 92.4,23.6 92.3,23.6 92.2,23.6 92.1,23.7 92,23.7 91.9,23.7 91.7,23.7 91.6,23.7 91.5,23.8 91.3,23.8 
	91.2,23.8 91,23.8 90.8,23.8 90.6,23.8 90.6,23.8 90.3,23.8 90,23.7 89.6,23.7 89.3,23.6 89,23.5 88.7,23.4 88.4,23.2 88.2,23.1 
	87.9,22.8 87.7,22.6 87.5,22.3 87.4,22 87.2,21.6 87.2,21.2 87.2,20.7 87.2,20.2 87.2,20.2 87.2,20 87.3,19.7 87.3,19.5 87.4,19.2 
	87.5,18.9 87.6,18.7 87.7,18.4 87.9,18.1 88.1,17.9 88.4,17.6 88.6,17.4 89,17.2 89.3,17.1 89.7,16.9 90.2,16.9 90.7,16.8 
	90.7,16.8 91,16.8 91.2,16.9 91.5,16.9 91.7,17 92,17.1 92.2,17.2 92.5,17.3 92.7,17.5 92.9,17.7 93,18 93.2,18.3 93.3,18.6 
	93.3,19 93.3,19.4 93.3,19.9 93.2,20.4 93.1,20.8 88.5,20.8 88.8,19.6 91.6,19.6 91.6,19.6 91.6,19.4 91.6,19.3 91.6,19.1 91.5,19 
	91.5,18.9 91.5,18.8 91.4,18.7 91.3,18.6 91.3,18.5 91.2,18.5 91.1,18.4 91,18.3 90.9,18.3 90.8,18.3 90.7,18.3 90.6,18.2 
	90.6,18.2 90.4,18.3 90.3,18.3 90.2,18.3 90.1,18.3 90,18.4 89.9,18.4 89.8,18.5 89.7,18.6 89.6,18.7 89.6,18.8 89.5,18.9 89.4,19 
	89.4,19.1 89.3,19.2 89.3,19.4 89.3,19.5 89,20.8 "/>
<polyline class="st0" points="104.2,17.4 104.2,17.4 104.1,17.3 104,17.3 103.9,17.2 103.8,17.2 103.7,17.1 103.6,17.1 103.5,17.1 
	103.4,17 103.3,17 103.2,17 103,16.9 102.9,16.9 102.8,16.9 102.6,16.9 102.5,16.9 102.3,16.9 102.3,16.9 102.1,16.9 102,16.9 
	101.8,16.9 101.6,17 101.4,17 101.3,17.1 101.1,17.2 100.9,17.3 100.7,17.4 100.6,17.6 100.4,17.8 100.3,18 100.1,18.3 100,18.6 
	99.9,19 99.8,19.4 99.8,19.4 99.7,19.6 99.7,19.8 99.7,20.1 99.7,20.3 99.7,20.5 99.8,20.7 99.8,20.9 99.9,21.1 100,21.3 
	100.1,21.4 100.2,21.6 100.4,21.7 100.6,21.8 100.7,21.9 101,22 101.2,22.1 101.2,22.1 101.3,22.1 101.4,22.1 101.5,22.1 
	101.6,22.1 101.8,22.1 101.9,22.1 102.1,22.1 102.2,22.1 102.4,22.1 102.6,22.1 102.7,22 102.9,22 103,21.9 103.2,21.8 103.3,21.7 
	103.4,21.6 103.2,23.3 103.2,23.3 103.1,23.3 103.1,23.4 103,23.4 103,23.4 102.9,23.5 102.8,23.5 102.7,23.6 102.6,23.6 
	102.5,23.7 102.3,23.7 102.1,23.7 101.9,23.8 101.6,23.8 101.3,23.8 101,23.8 100.7,23.7 100.7,23.7 100.4,23.7 100.1,23.7 
	99.8,23.6 99.5,23.4 99.2,23.3 98.9,23.1 98.7,22.9 98.5,22.6 98.2,22.3 98.1,22 97.9,21.7 97.8,21.3 97.7,20.8 97.7,20.4 
	97.7,19.9 97.8,19.4 97.8,19.4 97.8,19.1 97.9,18.8 98,18.6 98,18.4 98.1,18.1 98.2,17.9 98.3,17.7 98.3,17.5 98.4,17.3 98.5,17.1 
	98.6,17 98.8,16.8 98.9,16.6 99,16.5 99.1,16.3 99.3,16.2 99.4,16.1 99.5,16 99.7,15.8 99.9,15.7 100,15.6 100.2,15.6 100.4,15.5 
	100.6,15.4 100.8,15.4 101,15.3 101.2,15.3 101.4,15.2 101.6,15.2 101.8,15.2 102.1,15.2 102.3,15.1 102.3,15.1 102.5,15.2 
	102.7,15.2 102.9,15.2 103.1,15.2 103.3,15.2 103.4,15.3 103.6,15.3 103.7,15.3 103.9,15.4 104,15.4 104.1,15.5 104.2,15.5 
	104.3,15.5 104.4,15.6 104.5,15.6 104.5,15.6 104.2,17.4 "/>
<path class="st3" d="M119.8,23.8h-1.8l0.1-0.7V23l-0.1,0.1l-0.1,0.1l-0.1,0.1l-0.1,0.1l-0.1,0.1l-0.1,0.1l-0.1,0.1l-0.1,0.1l-0.1,0
	l-0.1,0l-0.1,0l-0.1,0l-0.1,0l-0.1,0l-0.1,0h-0.1l-0.3,0l-0.3-0.1l-0.3-0.1l-0.3-0.1l-0.2-0.2l-0.2-0.2l-0.2-0.2l-0.2-0.3l-0.1-0.3
	l-0.1-0.3l-0.1-0.3l-0.1-0.3l0-0.3l0-0.3l0-0.3l0.1-0.3l0.1-0.4l0.1-0.4l0.1-0.3l0.2-0.3l0.2-0.3l0.2-0.3l0.2-0.2l0.2-0.2l0.2-0.2
	l0.2-0.2l0.2-0.1l0.2-0.1l0.3-0.1l0.3-0.1l0.3,0l0.3,0l0.2,0l0.2,0l0.2,0l0.2,0l0.1,0.1l0.1,0.1l0.1,0.1l0.1,0.1l0.1,0.1l0.1,0.1
	l0.1,0.1l0.1,0.1l0.1,0.1l0.1,0.1l0.1,0.1l0,0.1l0,0l0.4-2.5h1.7L119.8,23.8L119.8,23.8L119.8,23.8z M117,22.2l0.2,0l0.2,0l0.2,0
	l0.1-0.1l0.1-0.1l0.1-0.1l0.1-0.1l0.1-0.1l0.1-0.1l0.1-0.1l0.1-0.1l0.1-0.2l0.1-0.2l0.1-0.2l0-0.2l0-0.2l0-0.2l0-0.2v-0.2l0-0.2
	l0-0.2l0-0.2l0-0.2l-0.1-0.1l-0.1-0.1l-0.1-0.1l-0.1-0.1l-0.1-0.1l-0.1-0.1l-0.1-0.1l-0.1,0l-0.1,0l-0.2,0l-0.2,0l-0.1,0.1l-0.1,0.1
	l-0.1,0.1l-0.1,0.1l-0.1,0.1l-0.1,0.1l-0.1,0.1l-0.1,0.1l-0.1,0.2l-0.1,0.2l-0.1,0.2l-0.1,0.2l-0.1,0.2l0,0.2l0,0.3l0,0.3l0,0.3
	l0.1,0.3l0.1,0.3l0.2,0.2l0.2,0.1L117,22.2L117,22.2L117,22.2z"/>
<path class="st3" d="M77.9,22.4l-0.3,1.4H76l0-0.3l0-0.2l0-0.2l0-0.1l-0.1,0.1L76,23.2l-0.1,0.1l-0.1,0.1l-0.2,0.1l-0.2,0.1
	l-0.2,0.1l-0.2,0.1l-0.2,0.1l-0.2,0l-0.2,0l-0.2,0l-0.2,0l-0.2,0l-0.2,0l-0.2,0l-0.2-0.1l-0.2-0.1L73,23.6l-0.2-0.1l-0.1-0.1
	l-0.1-0.1l-0.1-0.1l-0.1-0.1l-0.1-0.1l-0.1-0.1l-0.1-0.1l0-0.1l0-0.1l0-0.1l0-0.1V22l0-0.2l0-0.2l0.1-0.2l0.1-0.2l0.1-0.2l0.1-0.2
	l0.1-0.2l0.2-0.2l0.2-0.1l0.2-0.1l0.2-0.1l0.2-0.1l0.2-0.1l0.2-0.1l0.2-0.1l0.2,0h0l0,0l0,0l0.1,0l0.1,0l0.1,0l0.1,0l0.1,0l0.1,0
	l0.1,0l0.1,0l0.1,0l0.1,0l0.1,0l0.1,0h0.1h0.1l0.2,0l0.1,0h0.1l0.1,0l0.1,0l0.1,0h0l0,0l0-0.1l0-0.1l0-0.1l0-0.1l-0.1-0.1l-0.1-0.1
	l-0.1-0.1l-0.1-0.1l-0.1-0.1l-0.2,0l-0.2,0l-0.2,0l-0.2,0h-0.2l-0.2,0l-0.2,0l-0.2,0l-0.2,0l-0.2,0l-0.2,0l-0.2,0l-0.2,0l-0.2,0
	l-0.1,0l-0.1,0l-0.1,0l-0.1,0l0.5-1.5l0.1-0.1l0.1-0.1l0.2,0l0.2,0l0.2,0l0.2,0l0.2,0l0.2,0l0.2,0l0.2,0l0.2,0h0.2h0.2H76l0.2,0
	l0.2,0l0.2,0l0.2,0l0.2,0l0.2,0.1l0.2,0.1l0.2,0.1l0.2,0.1l0.2,0.1l0.2,0.1l0.1,0.2l0.1,0.2l0.1,0.2l0.1,0.2l0,0.2v0.2l0,0.3
	L77.9,22.4L77.9,22.4L77.9,22.4z M76.4,20.7L76.4,20.7L76.4,20.7L76.4,20.7l-0.1-0.1l-0.1,0l-0.1,0H76h-0.1l-0.1,0l-0.1,0l-0.1,0
	l-0.1,0l-0.1,0l-0.1,0l-0.1,0l-0.1,0l0,0l-0.1,0l-0.1,0l-0.1,0l-0.1,0l-0.1,0l-0.1,0L74.6,21L74.5,21l-0.1,0.1l-0.1,0.1l-0.1,0.1
	l-0.1,0.1l0,0.1l0,0.1l0,0.1l0,0.2l0,0.2l0.1,0.1l0.1,0.1l0.1,0.1l0.1,0l0.1,0l0.1,0l0.2,0l0.2,0l0.2,0l0.1,0l0.1,0l0.1-0.1l0.1-0.1
	l0.1-0.1l0.1-0.1l0.1-0.1l0.1-0.1l0.1-0.1l0-0.1l0-0.1l0-0.1l0-0.1l0.1-0.2l0-0.2l0-0.2L76.4,20.7L76.4,20.7L76.4,20.7z"/>
<polyline class="st0" points="64.5,23.8 62.8,23.8 64.2,15.4 67.2,15.4 67.5,20.4 69.6,15.4 72.8,15.4 71.3,23.8 69.5,23.8 
	70.6,17.5 70.6,17.5 68,23.8 66,23.8 66,23.8 66,23.5 66,22.8 65.9,21.8 65.9,20.7 65.8,19.6 65.7,18.6 65.7,17.8 65.7,17.5 
	65.7,17.5 65.7,17.5 65.6,17.5 65.6,17.5 65.6,17.5 64.5,23.8 "/>
<path class="st3" d="M109.5,22.4l-0.3,1.4h-1.6l0-0.3l0-0.2v-0.2l0-0.1l-0.1,0.1l-0.1,0.1l-0.1,0.1l-0.1,0.1l-0.1,0.1l-0.2,0.1
	l-0.2,0.1l-0.2,0.1l-0.2,0.1l-0.2,0.1l-0.2,0l-0.2,0l-0.2,0l-0.2,0l-0.2,0l-0.2,0l-0.2-0.1l-0.2-0.1l-0.2-0.1l-0.2-0.1l-0.1-0.1
	l-0.1-0.1l-0.1-0.1l-0.1-0.1l-0.1-0.1l-0.1-0.1l-0.1-0.1l0-0.1l0-0.1l0-0.1l0-0.1V22l0-0.2l0-0.2l0.1-0.2l0.1-0.2l0.1-0.2l0.1-0.2
	l0.1-0.2l0.1-0.2l0.2-0.1l0.2-0.1l0.2-0.1l0.2-0.1l0.2-0.1l0.2-0.1l0.2-0.1l0.2,0h0l0,0l0,0l0.1,0l0.1,0l0.1,0l0.1,0l0.1,0l0.1,0
	l0.1,0l0.1,0l0.1,0l0.1,0l0.1,0l0.1,0h0.1h0.2l0.2,0l0.1,0h0.1l0.1,0l0.1,0l0.1,0h0l0,0l0-0.1l0-0.1l0-0.1l0-0.1l-0.1-0.1l-0.1-0.1
	l-0.1-0.1l-0.1-0.1l-0.1-0.1l-0.1,0l-0.2,0l-0.2,0l-0.2,0h-0.2l-0.2,0l-0.2,0l-0.2,0l-0.2,0l-0.2,0l-0.2,0l-0.2,0l-0.2,0l-0.2,0
	l-0.1,0l-0.1,0l-0.1,0l-0.1,0l0.4-1.5l0.1-0.1l0.1-0.1l0.1,0l0.2,0l0.2,0l0.2,0l0.2,0l0.2,0l0.2,0l0.2,0l0.2,0h0.2h0.2h0.2l0.2,0
	l0.2,0l0.2,0l0.2,0l0.2,0l0.2,0.1l0.2,0.1l0.2,0.1l0.2,0.1l0.2,0.1l0.2,0.1l0.1,0.2l0.1,0.2l0.1,0.2l0.1,0.2l0,0.2v0.2l0,0.3
	L109.5,22.4L109.5,22.4L109.5,22.4z M107.9,20.7L107.9,20.7L107.9,20.7L107.9,20.7l-0.1-0.1l-0.1,0l-0.1,0h-0.1l-0.1,0l-0.1,0
	l-0.1,0l-0.1,0l-0.1,0l-0.1,0l-0.1,0l-0.1,0l-0.1,0l0,0l-0.1,0l-0.1,0l-0.1,0l-0.1,0l-0.1,0l-0.1,0l-0.1,0.1l-0.1,0.1l-0.1,0.1
	l-0.1,0.1l-0.1,0.1l-0.1,0.1l0,0.1l0,0.1l0,0.1l0,0.2l0,0.2l0.1,0.1l0.1,0.1l0.1,0.1l0.1,0l0.1,0l0.1,0l0.2,0l0.2,0l0.2,0l0.1,0
	l0.1-0.1l0.1-0.1l0.1-0.1l0.1-0.1l0.1-0.1l0.1-0.1l0.1-0.1l0.1-0.1l0-0.1l0-0.1l0-0.1l0-0.1l0-0.2l0-0.2l0-0.2L107.9,20.7
	L107.9,20.7L107.9,20.7z"/>
<polygon class="st3" points="109.9,23.8 111.7,23.8 111.7,23.8 112.4,20.2 112.4,20 112.4,19.9 112.5,19.7 112.5,19.6 112.6,19.5 
	112.7,19.3 112.8,19.2 112.9,19.1 113,19 113.1,18.9 113.2,18.8 113.4,18.7 113.6,18.6 113.8,18.6 114,18.5 114.3,18.5 114.4,18.5 
	114.4,18.5 114.4,18.5 114.4,18.5 114.7,16.9 114.5,16.9 114.4,16.9 114.2,17 114.1,17 113.9,17.1 113.8,17.1 113.7,17.2 
	113.5,17.3 113.4,17.4 113.3,17.4 113.2,17.5 113.1,17.6 113,17.8 112.9,17.9 112.8,18 112.7,18.1 112.9,17 111.1,17 109.9,23.8 
	109.9,23.8 109.9,23.8 "/>
<polygon class="st3" points="93.1,23.8 94.9,23.8 94.9,23.8 95.5,20.2 95.6,20 95.6,19.9 95.6,19.8 95.7,19.6 95.7,19.5 95.8,19.4 
	95.9,19.3 96,19.2 96.1,19.1 96.2,19 96.3,18.9 96.5,18.8 96.6,18.8 96.8,18.7 97.1,18.7 97.3,18.7 97.3,18.7 97.3,18.7 97.4,18.7 
	97.4,18.7 97.4,18.7 97.5,18.7 97.5,18.7 97.5,18.7 97.5,18.7 97.5,18.6 97.5,18.5 97.6,18.3 97.6,18.2 97.7,18 97.7,17.8 
	97.8,17.6 97.8,17.5 97.9,17.4 98,17.3 98,17.2 98.1,17.1 98.1,17 98.2,17 98.2,16.9 98.2,16.9 98.1,16.9 98.1,16.9 98.1,16.9 
	98,16.9 98,16.9 97.9,16.9 97.9,16.9 97.7,16.9 97.5,16.9 97.3,17 97.2,17 97,17.1 96.9,17.1 96.8,17.2 96.7,17.3 96.6,17.3 
	96.5,17.4 96.4,17.5 96.3,17.6 96.2,17.7 96.1,17.9 96,18 95.9,18.1 96.1,17 94.3,17 93.1,23.8 93.1,23.8 93.1,23.8 "/>
</svg>
