<?xml version="1.0" encoding="utf-8"?>
<!-- Generator: Adobe Illustrator 23.0.4, SVG Export Plug-In . SVG Version: 6.00 Build 0)  -->
<svg version="1.1" id="Réteg_1" xmlns="http://www.w3.org/2000/svg" xmlns:xlink="http://www.w3.org/1999/xlink" x="0px" y="0px"
	 viewBox="0 0 24 24" style="enable-background:new 0 0 24 24;" xml:space="preserve">
<style type="text/css">
	.st0{fill:#444444;}
</style>
<path class="st0" d="M12,22c-0.2,0-0.4-0.1-0.5-0.2l-8.8-8.8c-1.2-1.2-1.8-2.8-1.8-4.4s0.7-3.2,1.8-4.4S5.4,2.2,7,2.2
	c1.7,0,3.2,0.7,4.4,1.8L12,4.6l0.5-0.5c0,0,0,0,0,0c1.2-1.2,2.7-1.8,4.4-1.8h0c1.7,0,3.2,0.7,4.4,1.8l0,0c1.2,1.2,1.8,2.8,1.8,4.4
	c0,1.7-0.7,3.2-1.8,4.4l-8.8,8.8C12.4,21.9,12.2,22,12,22z M7,3.8c-1.2,0-2.4,0.5-3.4,1.4C1.8,7,1.8,10,3.7,11.9l8.3,8.3l8.3-8.3
	c0.9-0.9,1.4-2.1,1.4-3.4c0-1.3-0.5-2.5-1.4-3.4l0,0c-0.9-0.9-2.1-1.4-3.4-1.4h0c-1.3,0-2.5,0.5-3.4,1.4l0,0c0,0,0,0,0,0l-1.1,1.1
	c-0.3,0.3-0.8,0.3-1.1,0l-1.1-1.1C9.5,4.2,8.3,3.8,7,3.8z"/>
</svg>
