<?xml version="1.0" encoding="utf-8"?>
<!-- Generator: Adobe Illustrator 23.0.4, SVG Export Plug-In . SVG Version: 6.00 Build 0)  -->
<svg version="1.1" id="Réteg_1" xmlns="http://www.w3.org/2000/svg" xmlns:xlink="http://www.w3.org/1999/xlink" x="0px" y="0px"
	 viewBox="0 0 24 24" style="enable-background:new 0 0 24 24;" xml:space="preserve">
<style type="text/css">
	.st0{fill:#FFFFFF;}
</style>
<path class="st0" d="M6,18.5c-0.1,0-0.3,0-0.4-0.1c-0.2-0.2-0.2-0.5,0-0.7l12-12c0.2-0.2,0.5-0.2,0.7,0s0.2,0.5,0,0.7l-12,12
	C6.3,18.5,6.1,18.5,6,18.5z"/>
<path class="st0" d="M18,18.5c-0.1,0-0.3,0-0.4-0.1l-12-12c-0.2-0.2-0.2-0.5,0-0.7s0.5-0.2,0.7,0l12,12c0.2,0.2,0.2,0.5,0,0.7
	C18.3,18.5,18.1,18.5,18,18.5z"/>
</svg>
