<?xml version="1.0" encoding="utf-8"?>
<!-- Generator: Adobe Illustrator 23.0.4, SVG Export Plug-In . SVG Version: 6.00 Build 0)  -->
<svg version="1.1" id="Réteg_1" xmlns="http://www.w3.org/2000/svg" xmlns:xlink="http://www.w3.org/1999/xlink" x="0px" y="0px"
	 viewBox="0 0 24 24" style="enable-background:new 0 0 24 24;" xml:space="preserve">
<style type="text/css">
	.st0{fill:#666666;}
</style>
<path class="st0" d="M4,13h16c0.6,0,1-0.4,1-1s-0.4-1-1-1H4c-0.6,0-1,0.4-1,1S3.4,13,4,13z"/>
<path class="st0" d="M14,19c0.3,0,0.5-0.1,0.7-0.3l6-6c0.4-0.4,0.4-1,0-1.4l-6-6c-0.4-0.4-1-0.4-1.4,0s-0.4,1,0,1.4l5.3,5.3
	l-5.3,5.3c-0.4,0.4-0.4,1,0,1.4C13.5,18.9,13.7,19,14,19z"/>
</svg>
