<?xml version="1.0" encoding="utf-8"?>
<!-- Generator: Adobe Illustrator 23.0.4, SVG Export Plug-In . SVG Version: 6.00 Build 0)  -->
<svg version="1.1" id="Réteg_1" xmlns="http://www.w3.org/2000/svg" xmlns:xlink="http://www.w3.org/1999/xlink" x="0px" y="0px"
	 viewBox="0 0 24 24" style="enable-background:new 0 0 24 24;" xml:space="preserve">
<style type="text/css">
	.st0{fill:#13A5F0;}
</style>
<path class="st0" d="M11,19.8c-4.8,0-8.8-3.9-8.8-8.8c0-4.8,3.9-8.8,8.8-8.8c4.8,0,8.8,3.9,8.8,8.8C19.8,15.8,15.8,19.8,11,19.8z
	 M11,3.8C7,3.8,3.8,7,3.8,11c0,4,3.3,7.2,7.2,7.2c4,0,7.2-3.3,7.2-7.2C18.2,7,15,3.8,11,3.8z"/>
<path class="st0" d="M21,21.8c-0.2,0-0.4-0.1-0.5-0.2l-4.3-4.3c-0.3-0.3-0.3-0.8,0-1.1s0.8-0.3,1.1,0l4.3,4.3c0.3,0.3,0.3,0.8,0,1.1
	C21.4,21.7,21.2,21.8,21,21.8z"/>
</svg>
