<?xml version="1.0" encoding="utf-8"?>
<!-- Generator: Adobe Illustrator 23.0.4, SVG Export Plug-In . SVG Version: 6.00 Build 0)  -->
<svg version="1.1" id="Réteg_1" xmlns="http://www.w3.org/2000/svg" xmlns:xlink="http://www.w3.org/1999/xlink" x="0px" y="0px"
	 viewBox="0 0 24 24" style="enable-background:new 0 0 24 24;" xml:space="preserve">
<style type="text/css">
	.st0{fill:#444444;}
</style>
<path class="st0" d="M19,22.8H5c-1.5,0-2.8-1.2-2.8-2.8V6c0-0.2,0.1-0.3,0.1-0.5l3-4C5.5,1.4,5.8,1.2,6,1.2h12
	c0.2,0,0.5,0.1,0.6,0.3l3,4c0.1,0.1,0.2,0.3,0.2,0.5v14C21.8,21.5,20.5,22.8,19,22.8z M3.8,6.2V20c0,0.7,0.6,1.2,1.2,1.2h14
	c0.7,0,1.2-0.6,1.2-1.2V6.2l-2.6-3.5H6.4L3.8,6.2z"/>
<path class="st0" d="M21,6.8H3C2.6,6.8,2.2,6.4,2.2,6S2.6,5.2,3,5.2h18c0.4,0,0.8,0.3,0.8,0.8S21.4,6.8,21,6.8z"/>
<path class="st0" d="M12,14.8c-2.6,0-4.8-2.1-4.8-4.8c0-0.4,0.3-0.8,0.8-0.8S8.8,9.6,8.8,10c0,1.8,1.5,3.2,3.2,3.2s3.2-1.5,3.2-3.2
	c0-0.4,0.3-0.8,0.8-0.8s0.8,0.3,0.8,0.8C16.8,12.6,14.6,14.8,12,14.8z"/>
</svg>
