<?xml version="1.0" encoding="utf-8"?>
<!-- Generator: Adobe Illustrator 23.0.4, SVG Export Plug-In . SVG Version: 6.00 Build 0)  -->
<svg version="1.1" id="Réteg_1" xmlns="http://www.w3.org/2000/svg" xmlns:xlink="http://www.w3.org/1999/xlink" x="0px" y="0px"
	 viewBox="0 0 24 24" style="enable-background:new 0 0 24 24;" xml:space="preserve">
<style type="text/css">
	.st0{fill:url(#SVGID_1_);}
	.st1{fill:#FFFFFF;}
</style>
<linearGradient id="SVGID_1_" gradientUnits="userSpaceOnUse" x1="0.9" y1="12.1" x2="23.1" y2="12.1">
	<stop  offset="0" style="stop-color:#0CD481"/>
	<stop  offset="0.9985" style="stop-color:#13A5F0"/>
</linearGradient>
<path class="st0" d="M21.3,4.1c-1.2-1.1-2.7-1.8-4.4-1.8c-1.7,0-3.2,0.6-4.4,1.8L12,4.6L11.4,4C10.2,2.9,8.7,2.2,7,2.2
	c-1.6,0-3.2,0.8-4.3,2C1.6,5.4,0.9,7,0.9,8.6c0,1.6,0.6,3.2,1.8,4.4l8.8,8.8c0.1,0.1,0.3,0.2,0.5,0.2s0.4-0.1,0.5-0.3l8.8-8.8
	c1.1-1.2,1.8-2.7,1.8-4.4C23.1,6.9,22.5,5.3,21.3,4.1z M20.3,11.9L12,20.2l-8.3-8.3C1.8,10,1.8,7,3.6,5.2c1-0.9,2.2-1.4,3.4-1.4
	c1.3,0,2.5,0.4,3.2,1.3l1.1,1.1c0.3,0.3,0.8,0.3,1.1,0l1.1-1.1c0.9-0.9,2.1-1.4,3.4-1.4c1.3,0,2.5,0.5,3.4,1.4
	c0.9,0.9,1.4,2.1,1.4,3.4S21.2,11,20.3,11.9z"/>
<path class="st1" d="M21.7,8.5c0,1.3-0.5,2.5-1.4,3.4L12,20.2l-8.3-8.3C1.8,10,1.8,7,3.6,5.2c1-0.9,2.2-1.4,3.4-1.4
	c1.3,0,2.5,0.4,3.2,1.3l1.1,1.1c0.3,0.3,0.8,0.3,1.1,0l1.1-1.1c0.9-0.9,2.1-1.4,3.4-1.4c1.3,0,2.5,0.5,3.4,1.4
	C21.2,6,21.7,7.2,21.7,8.5z"/>
</svg>
