<?xml version="1.0" encoding="utf-8"?>
<!-- Generator: Adobe Illustrator 23.0.4, SVG Export Plug-In . SVG Version: 6.00 Build 0)  -->
<svg version="1.1" id="Réteg_1" xmlns="http://www.w3.org/2000/svg" xmlns:xlink="http://www.w3.org/1999/xlink" x="0px" y="0px"
	 viewBox="0 0 24 24" style="enable-background:new 0 0 24 24;" xml:space="preserve">
<style type="text/css">
	.st0{fill:#0CD481;}
</style>
<path class="st0" d="M23.1,8.5c0,1.7-0.7,3.2-1.8,4.4l-8.8,8.8C12.4,21.9,12.2,22,12,22s-0.4-0.1-0.5-0.2L2.7,13
	c-1.2-1.2-1.8-2.8-1.8-4.4c0-1.6,0.7-3.2,1.8-4.4c1.1-1.2,2.7-2,4.3-2c1.7,0,3.2,0.7,4.4,1.8L12,4.6l0.5-0.5
	c1.2-1.2,2.7-1.8,4.4-1.8c1.7,0,3.2,0.7,4.4,1.8C22.5,5.3,23.1,6.9,23.1,8.5z"/>
</svg>
