<?xml version="1.0" encoding="utf-8"?>
<!-- Generator: Adobe Illustrator 23.0.4, SVG Export Plug-In . SVG Version: 6.00 Build 0)  -->
<svg version="1.1" id="Réteg_1" xmlns="http://www.w3.org/2000/svg" xmlns:xlink="http://www.w3.org/1999/xlink" x="0px" y="0px"
	 viewBox="0 0 24 24" style="enable-background:new 0 0 24 24;" xml:space="preserve">
<style type="text/css">
	.st0{fill:#444444;}
</style>
<path class="st0" d="M21,12c0-0.6-0.4-1-1-1H4c-0.6,0-1,0.4-1,1s0.4,1,1,1h16C20.6,13,21,12.6,21,12z"/>
<path class="st0" d="M10.7,18.7c0.4-0.4,0.4-1,0-1.4L5.4,12l5.3-5.3c0.4-0.4,0.4-1,0-1.4s-1-0.4-1.4,0l-6,6c-0.4,0.4-0.4,1,0,1.4
	l6,6C9.5,18.9,9.7,19,10,19S10.5,18.9,10.7,18.7z"/>
</svg>
