<?xml version="1.0" encoding="utf-8"?>
<!-- Generator: Adobe Illustrator 23.0.4, SVG Export Plug-In . SVG Version: 6.00 Build 0)  -->
<svg version="1.1" id="Réteg_1" xmlns="http://www.w3.org/2000/svg" xmlns:xlink="http://www.w3.org/1999/xlink" x="0px" y="0px"
	 viewBox="0 0 260 32" style="enable-background:new 0 0 260 32;" xml:space="preserve">
<style type="text/css">
	.st0{fill:#BBBBBB;}
</style>
<g>
	<path class="st0" d="M14.5,21.6c-0.3,0.6-0.7,1.2-1.2,1.6c-0.5,0.5-1.1,0.8-1.7,1.2c-0.6,0.3-1.3,0.5-2,0.6l0,0
		c-0.1,0-0.3,0.1-0.4,0.1c-0.1,0-0.3,0-0.5,0H8.6l0,0c-0.7,0-1.3,0-2,0c-0.6,0-1.3,0-2,0c-0.6,0-1.3,0-2-0.1c-0.7,0-1.4,0-2,0
		c-0.2,0-0.4-0.1-0.4-0.3c0-0.2,0.1-0.3,0.3-0.3c0.3-0.1,0.6-0.2,0.9-0.3c0.2-0.1,0.4-0.2,0.5-0.3c0.1-0.1,0.2-0.3,0.2-0.6
		c0-0.3,0.1-0.6,0.1-1v-14C2.2,8,2.1,7.8,2,7.6C1.8,7.4,1.7,7.3,1.5,7.1C1.3,7,1.1,6.9,0.9,6.8c-0.3,0-0.5-0.1-0.6-0.1
		C0.1,6.7,0,6.6,0,6.4s0.2-0.3,0.4-0.3s0.3,0,0.5,0.1s0.3,0,0.4,0c0.4,0,0.8,0,1.2,0s0.8-0.1,1.2-0.1C4.1,6,4.6,5.9,5,5.9
		s0.9-0.1,1.3-0.1c0.6,0,1.3,0.1,2.1,0.2c0.8,0.1,1.5,0.4,2.1,0.7C11.2,7,11.7,7.5,12.2,8c0.5,0.6,0.7,1.2,0.7,2s-0.3,1.6-0.8,2.3
		s-1.1,1.3-1.7,1.9c0.6,0.2,1.2,0.4,1.7,0.7s1,0.7,1.4,1.1c0.4,0.4,0.7,0.9,1,1.5c0.2,0.6,0.4,1.2,0.4,1.9
		C14.9,20.3,14.8,20.9,14.5,21.6z M9,8.1C8.4,7.5,7.6,7.2,6.7,7.2c-0.4,0-0.8,0.1-1.3,0.2v6.5h1.1c1,0,1.9-0.2,2.5-0.8
		s0.9-1.4,0.9-2.5C9.9,9.6,9.6,8.8,9,8.1z M11.4,17.9c-0.3-0.6-0.8-1.1-1.4-1.6c-0.6-0.4-1.2-0.7-1.9-0.9S6.7,15.1,6,15.2H5.4V22
		c0,0.3,0.1,0.6,0.3,0.8c0.2,0.2,0.4,0.4,0.7,0.6c0.3,0.1,0.6,0.3,0.9,0.3c0.3,0.1,0.6,0.1,0.8,0.1c0.5,0,1-0.1,1.5-0.3
		c0.5-0.2,0.9-0.4,1.2-0.8c0.3-0.3,0.6-0.7,0.8-1.2s0.3-1,0.3-1.5C11.9,19.3,11.8,18.6,11.4,17.9z"/>
	<path class="st0" d="M23.8,25.2c-0.4,0-0.8,0-1.2,0c-0.4,0-0.8,0-1.3,0H20c-0.2,0-0.4,0-0.7,0c-0.3,0-0.6,0-0.9,0.1
		c-0.3,0-0.6,0-0.9,0s-0.5-0.1-0.7-0.1c-0.2-0.1-0.3-0.2-0.2-0.4c0.1-0.2,0.2-0.3,0.4-0.3c0.2,0,0.8-0.1,0.9-0.3
		c0.1-0.1,0.2-0.3,0.3-0.6c0.1-0.2,0.1-0.5,0.2-0.7c0-0.2,0.1-0.4,0.1-0.6V8.2c0-0.5-0.2-0.8-0.6-1s-0.8-0.3-1.2-0.4
		c-0.2,0-0.3-0.1-0.3-0.3c0-0.2,0.1-0.3,0.4-0.3c0.6,0,1.1,0,1.7,0s1.1,0.1,1.6,0.1s1,0,1.6-0.1c0.5,0,1,0,1.6,0
		c0.2,0,0.3,0.1,0.3,0.3c0,0.2-0.1,0.3-0.3,0.3c-0.5,0.1-0.9,0.2-1.2,0.3c-0.3,0.1-0.5,0.5-0.5,1v14c0,0.1,0,0.2,0.1,0.4
		c0,0.2,0.1,0.4,0.1,0.6s0.1,0.4,0.2,0.6s0.1,0.3,0.2,0.4c0.1,0,0.2,0,0.3,0.1c0.1,0,0.3,0,0.4,0c0.3,0,0.5,0,0.7,0.1
		c0.2,0,0.4,0.1,0.6,0.3L23.8,25.2z"/>
	<path class="st0" d="M33.2,7.3c-0.3,0.2-0.5,0.5-0.5,1v15.1c0,0.9-0.2,1.8-0.6,2.6c-0.4,0.8-0.9,1.5-1.5,2.2s-1.3,1.2-2.1,1.8
		c-0.8,0.5-1.5,1-2.3,1.3c-0.2,0-0.3,0-0.4-0.1s-0.1-0.2-0.1-0.3c0.1-0.2,0.2-0.4,0.4-0.7c0.2-0.2,0.4-0.5,0.7-0.7
		c0.3-0.2,0.6-0.5,0.9-0.8s0.6-0.7,0.9-1.2s0.5-1.1,0.7-1.8c0.2-0.7,0.3-1.6,0.3-2.6V8.3c0-0.6-0.1-0.9-0.3-1
		c-0.2-0.1-0.4-0.2-0.6-0.2c-0.3,0-0.5,0-0.7,0S27.6,7,27.5,6.8c-0.1-0.1-0.1-0.2-0.1-0.3c0.1-0.1,0.2-0.1,0.4-0.1H29
		c0.9,0,1.8,0,2.7,0s1.8,0,2.7,0V7C34,7,33.6,7.1,33.2,7.3z"/>
	<path class="st0" d="M57.8,20.2c-0.7,1.2-1.6,2.1-2.7,2.9c-1.1,0.8-2.3,1.4-3.7,1.8s-2.8,0.6-4.1,0.6c-1.4,0-2.7-0.3-4.1-0.8
		c-1.3-0.5-2.5-1.2-3.5-2.1s-1.8-2-2.5-3.2c-0.6-1.2-0.9-2.6-0.9-4c0-1.6,0.3-3,1-4.2s1.6-2.3,2.7-3.1c1.1-0.8,2.3-1.5,3.7-1.9
		s2.8-0.7,4.3-0.7c1.4,0,2.8,0.3,4.1,0.9s2.4,1.3,3.4,2.3s1.8,2.1,2.4,3.4c0.6,1.3,0.9,2.7,0.9,4.1C58.8,17.7,58.5,19,57.8,20.2z
		 M55.1,12.7c-0.4-1.1-1-2.1-1.7-2.9c-0.7-0.8-1.6-1.5-2.6-2s-2.2-0.7-3.4-0.7s-2.2,0.2-3.2,0.6s-1.8,0.9-2.5,1.6s-1.3,1.5-1.6,2.5
		c-0.4,1-0.6,2-0.6,3.2s0.2,2.4,0.6,3.5c0.4,1.1,1,2.1,1.7,2.9s1.6,1.5,2.7,2c1,0.5,2.2,0.7,3.5,0.7c1.2,0,2.2-0.2,3.2-0.6
		s1.8-0.9,2.5-1.6s1.2-1.5,1.6-2.5c0.4-1,0.6-2.1,0.6-3.2C55.7,14.9,55.5,13.8,55.1,12.7z"/>
	<path class="st0" d="M80.6,7.2c-0.4,0.2-0.5,0.5-0.5,1v9.6c0,1.2-0.2,2.2-0.7,3.2c-0.4,1-1,1.8-1.8,2.5C76.9,24.1,76,24.7,75,25
		c-1,0.4-2.1,0.6-3.2,0.6c-0.9,0-1.9-0.1-2.9-0.4c-1-0.2-2-0.6-2.8-1.1c-0.9-0.5-1.6-1.1-2.1-1.9c-0.6-0.8-0.9-1.7-0.9-2.7l0,0
		c0-0.2,0-0.4,0-0.6S63,18.6,63,18.4V8.2c0-0.6-0.1-0.9-0.4-1c-0.4-0.1-0.7-0.2-1-0.2c-0.3,0-0.5-0.1-0.7-0.1s-0.3-0.2-0.4-0.4
		c0-0.2,0.1-0.3,0.4-0.3H62c1.9,0,3.8,0.1,5.7,0.2c0.2,0,0.3,0.1,0.3,0.3C68,6.9,67.9,7,67.7,7c-0.5,0-0.9,0.1-1.2,0.3
		c-0.3,0.2-0.5,0.5-0.5,1v5.4c0,0.9,0,1.8,0,2.8c0,0.9,0,1.8,0,2.7c0,0.8,0.2,1.5,0.5,2.1s0.7,1.1,1.3,1.5c0.5,0.4,1.1,0.7,1.8,0.9
		c0.7,0.2,1.4,0.3,2.1,0.3s1.5-0.1,2.2-0.3c0.7-0.2,1.3-0.5,1.9-1c0.5-0.4,1-1,1.3-1.6s0.5-1.3,0.5-2.2c0-0.9,0-1.8,0-2.7
		c0-0.9,0-1.8,0-2.7s0-1.8,0-2.7s0-1.8,0-2.7c0-0.3,0-0.5-0.1-0.7S77.3,7.1,77.2,7c-0.1-0.1-0.3-0.1-0.4-0.2c-0.1,0-0.3,0-0.4-0.1
		c-0.3,0-0.5-0.1-0.7-0.1s-0.3-0.2-0.4-0.4c0-0.2,0.1-0.3,0.4-0.3c1,0,2.1,0,3.1,0s2,0.1,3,0.1v0.6C81.3,6.9,81,7.1,80.6,7.2z"/>
	<path class="st0" d="M103.7,25.1c-0.5,0-1,0-1.4,0c-0.5,0-0.9,0-1.4,0s-1,0-1.4-0.1c-0.5,0-0.9,0-1.4,0c-0.2,0-0.3-0.1-0.4-0.2
		s0-0.2,0.2-0.4c0.1-0.1,0.1-0.2,0.1-0.3c0-0.1-0.1-0.2-0.2-0.5c-0.2-0.3-0.4-0.6-0.6-1.1c-0.3-0.4-0.6-0.9-0.9-1.4s-0.7-1-1-1.5
		s-0.7-0.9-1-1.4c-0.3-0.4-0.5-0.8-0.7-1.1c-0.1,0.2-0.2,0.4-0.4,0.6c-0.1,0.2-0.3,0.4-0.5,0.7c-0.3,0.5-0.7,1-1,1.5
		c-0.4,0.5-0.7,1.1-1.1,1.6c-0.3,0.5-0.6,1-0.8,1.5c-0.2,0.5-0.4,0.8-0.4,1.1c0.1,0.1,0.2,0.1,0.3,0.1c0.2,0,0.4,0,0.6,0.1
		s0.3,0.2,0.2,0.3c0,0.2-0.1,0.2-0.3,0.3c-0.9,0-1.7,0.1-2.6,0.1c-0.8,0-1.7,0-2.5,0h-0.8c-0.2,0-0.4-0.1-0.4-0.3
		c0-0.2,0.1-0.3,0.3-0.3c0.6,0,1.1-0.2,1.7-0.6s1.1-0.9,1.6-1.5s1-1.3,1.5-2s1-1.5,1.4-2.1c0.3-0.5,0.7-1,0.9-1.5
		c0.3-0.4,0.6-0.9,0.9-1.2c-0.3-0.4-0.6-0.9-1-1.5s-0.7-1.1-0.9-1.5c-0.4-0.6-0.8-1.2-1.2-1.8C88.7,10,88.3,9.5,87.9,9
		S87,8,86.4,7.7c-0.5-0.4-1.1-0.6-1.7-0.7c-0.2,0-0.3-0.1-0.3-0.3c0-0.2,0.1-0.3,0.3-0.3c0.5-0.1,0.9-0.1,1.5-0.1
		c0.5,0,1.1-0.1,1.6-0.1h1.3c0.4,0,1,0,1.4,0s0.7,0,1.1,0c0.2,0,0.4,0.1,0.4,0.2c0,0.2,0,0.3-0.2,0.3c-0.2,0.1-0.4,0.2-0.6,0.3
		c-0.2,0.1-0.3,0.3-0.3,0.6c0,0.3,0.2,0.8,0.7,1.4c0.4,0.6,0.9,1.3,1.4,2c0.3,0.4,0.5,0.8,0.8,1.1s0.5,0.7,0.7,1
		c0.2-0.3,0.4-0.6,0.7-0.9c0.3-0.3,0.6-0.7,0.9-1.1c0.3-0.3,0.6-0.7,0.8-1c0.3-0.3,0.5-0.7,0.7-1s0.4-0.6,0.5-0.8s0.2-0.4,0.2-0.6
		c0-0.3-0.1-0.5-0.4-0.6s-0.6-0.2-0.8-0.3c-0.2,0-0.3-0.1-0.3-0.3c0-0.2,0.1-0.3,0.4-0.3c0.5,0,1-0.1,1.4-0.1c0.5,0,1,0,1.5,0
		s1,0,1.5,0s1,0.1,1.5,0.2c0.2,0,0.3,0.2,0.3,0.3c0,0.2-0.2,0.3-0.4,0.3c-0.5,0-1,0.2-1.5,0.6s-1,0.8-1.5,1.3s-1,1.1-1.4,1.8
		c-0.5,0.6-0.9,1.3-1.3,1.9c-0.3,0.5-0.6,0.9-0.9,1.3c-0.3,0.4-0.5,0.7-0.8,1c0.3,0.5,0.7,1,1.1,1.5c0.4,0.6,0.7,1.1,1.1,1.7
		c0.4,0.7,0.9,1.4,1.3,2.1c0.5,0.7,1,1.4,1.5,2s1,1.1,1.6,1.6c0.5,0.4,1.1,0.7,1.8,0.9L103.7,25.1z"/>
	<path class="st0" d="M193.1,25c-0.6,0-1.1,0-1.7,0c-0.4,0-0.8,0-1.2,0s-0.8,0-1.2-0.1c-0.2,0-0.3-0.1-0.4-0.2
		c-0.1-0.1,0-0.2,0.1-0.3L189,24c-0.5-1.1-0.9-2.1-1.4-3.1c-0.4-1-0.9-2-1.4-3.1h-5.6c-0.2,0.4-0.4,0.8-0.6,1.4
		c-0.2,0.6-0.5,1.2-0.7,1.7c-0.2,0.6-0.4,1.1-0.6,1.6c-0.2,0.5-0.2,0.8-0.2,1.1c0,0.3,0.1,0.4,0.4,0.5c0.3,0.1,0.6,0.1,0.8,0.2
		c0.2,0,0.3,0.1,0.3,0.3c0,0.2-0.1,0.3-0.4,0.3l-6.1-0.1l0.1-0.6c0.2,0.1,0.5,0.1,0.7,0c0.3-0.1,0.5-0.2,0.7-0.4
		c0.2-0.2,0.4-0.4,0.6-0.7c0.2-0.3,0.3-0.5,0.5-0.7c0.5-1.1,0.9-2.2,1.4-3.4c0.5-1.2,1-2.3,1.4-3.4c0.7-1.6,1.3-3.3,2-4.9
		s1.4-3.2,2.1-4.8c0.1-0.2,0.3-0.2,0.5-0.1s0.3,0.2,0.5,0.5c0.2,0.2,0.3,0.5,0.5,0.8s0.3,0.6,0.5,0.9c0.1,0.3,0.3,0.6,0.4,0.9l0,0
		c0.1,0.2,0.1,0.3,0.2,0.4c0,0.1,0.1,0.2,0.1,0.3l0,0l1.5,3.6c0.7,1.7,1.4,3.3,2.2,5c0.7,1.7,1.5,3.3,2.4,4.9c0.3,0.5,0.7,0.9,1.1,1
		c0.5,0.2,1,0.3,1.5,0.3V25C194.2,25,193.6,25,193.1,25z M183.5,10.6c-0.4,1-0.7,2-1.1,2.9c-0.3,0.9-0.7,1.9-1.1,2.9h4.4L183.5,10.6
		z"/>
	<path class="st0" d="M213.3,22.7c-0.1,0.6-0.3,1.7-0.4,1.8c0,0.1-0.1,0.6-0.3,0.6s-0.9,0-0.9,0c-2.4,0-4.9,0-7.3,0
		c-2.4,0-4.8,0-7.3-0.1c-0.2,0-0.3-0.1-0.4-0.2c-0.1-0.1-0.1-0.2,0-0.3c1.2-1.9,2.5-3.8,3.9-5.6c1.4-1.8,2.7-3.6,4.1-5.5
		c0.8-1,1.5-2,2.2-2.9s1.5-1.9,2.2-2.9c-0.1,0-0.1,0-0.1,0h-0.1c-0.1,0-0.1,0-0.2,0c-0.1,0-0.2,0-0.2,0c-1,0-2.1,0-3.1,0
		s-2.1,0-3.1,0c-0.7,0-1.4,0.3-2.1,0.8c-0.7,0.5-1.3,1.1-1.8,1.6l-0.3,0.3c-0.1,0.1-0.3,0.1-0.4,0.1c-0.2-0.1-0.2-0.2-0.2-0.3
		c0.1-0.7,0.2-1.3,0.3-1.9s0.2-1.2,0.3-1.8c0-0.1,0-0.1,0-0.2s0-0.1,0-0.2c0.1-0.2,0.3-0.3,0.5-0.2c0.4,0.1,0.9,0.2,1.3,0.3
		c0.5,0.1,0.9,0.1,1.3,0.1h11.7c0.2,0,0.3,0.1,0.4,0.2c0.1,0.1,0.1,0.2,0,0.3c-0.5,0.8-1.1,1.8-1.9,2.9c-0.8,1.1-1.6,2.2-2.4,3.3
		c-0.8,1.1-1.7,2.2-2.5,3.3s-1.5,2-2.1,2.8s-1.2,1.5-1.8,2.3c-0.6,0.7-1.2,1.5-1.8,2.3c0,0,0.1,0,0.2,0c0.1,0,0.2,0,0.2,0
		c0.1,0,0.1,0,0.2,0c0.1,0,0.2,0,0.2,0h7.3c0.4,0,0.7-0.1,1.1-0.3c0.4-0.2,0.7-0.4,1-0.6c0.3-0.3,0.6-0.5,0.9-0.9
		c0.3-0.3,0.5-0.6,0.7-0.9c0.1-0.1,0.3-0.2,0.5-0.1c0.2,0,0.3,0.1,0.3,0.3C213.5,21.5,213.4,22.1,213.3,22.7z"/>
	<path class="st0" d="M235.4,7.2c-0.4,0.2-0.5,0.5-0.5,1v9.6c0,1.2-0.2,2.2-0.7,3.2c-0.4,1-1,1.8-1.8,2.5c-0.7,0.7-1.6,1.2-2.6,1.6
		s-2.1,0.6-3.2,0.6c-0.9,0-1.9-0.1-2.9-0.4c-1-0.2-2-0.6-2.8-1.1c-0.9-0.5-1.6-1.1-2.1-1.9c-0.6-0.8-0.9-1.7-0.9-2.7l0,0
		c0-0.2,0-0.4,0-0.6s-0.1-0.3-0.1-0.5V8.2c0-0.6-0.1-0.9-0.4-1c-0.4-0.1-0.7-0.2-1-0.2s-0.5-0.1-0.7-0.1s-0.3-0.2-0.4-0.4
		c0-0.2,0.1-0.3,0.4-0.3h1.1c1.9,0,3.8,0.1,5.7,0.2c0.2,0,0.3,0.1,0.3,0.3c0,0.2-0.1,0.3-0.3,0.3c-0.5,0-0.9,0.1-1.2,0.3
		c-0.3,0.2-0.5,0.5-0.5,1v5.4c0,0.9,0,1.8,0,2.8c0,0.9,0,1.8,0,2.7c0,0.8,0.2,1.5,0.5,2.1s0.8,1.1,1.3,1.5s1.1,0.7,1.8,0.9
		c0.7,0.2,1.4,0.3,2.1,0.3c0.7,0,1.5-0.1,2.2-0.3c0.7-0.2,1.3-0.5,1.9-1c0.5-0.4,1-1,1.3-1.6s0.5-1.3,0.5-2.2c0-0.9,0-1.8,0-2.7
		c0-0.9,0-1.8,0-2.7s0-1.8,0-2.7s0-1.8,0-2.7c0-0.3,0-0.5-0.1-0.7S232.1,7.1,232,7s-0.2-0.1-0.4-0.2c-0.2,0-0.3,0-0.4-0.1
		c-0.3,0-0.5-0.1-0.7-0.1s-0.4-0.2-0.4-0.4c0-0.2,0.1-0.3,0.4-0.3c1,0,2.1,0,3.1,0s2,0.1,3,0.1v0.6C236.1,6.9,235.8,7.1,235.4,7.2z"
		/>
	<path class="st0" d="M257.2,25.5c-0.8,0-1.5-0.1-2.2-0.4c-0.6-0.3-1.2-0.6-1.8-1c-0.5-0.4-1-0.9-1.5-1.4s-0.9-1.1-1.3-1.6
		c-0.4-0.5-0.8-1-1.2-1.5s-0.8-0.9-1.2-1.2c-0.4-0.3-0.9-0.6-1.5-0.6c-0.6-0.1-1.2-0.1-1.7-0.1c-0.2,0-0.3,0-0.4,0
		c-0.1,0-0.2,0-0.4,0c0,0,0,4.1,0,4.6s0.1,0.8,0.2,1.3c0.1,0.5,0.3,0.6,0.3,0.7c0.1,0,0.1,0.1,0.3,0.1s0.7,0.1,1.1,0.1
		c0.2,0,0.5,0.2,0.6,0.3c0.1,0.1,0.2,0.2,0.2,0.3c-0.1,0.1-0.2,0.2-0.4,0.2c-1.2,0-2.3,0-3.5,0s-2.3-0.1-3.5-0.1
		c-0.2,0-0.3-0.1-0.3-0.3c0-0.2,0.1-0.3,0.3-0.3c0.4,0,0.7-0.1,0.9-0.2s0.4-0.2,0.5-0.3c0.1-0.1,0.2-0.3,0.2-0.6c0-0.3,0-0.6,0-1.1
		v-14c0-0.6-0.1-0.9-0.4-1c-0.2-0.1-0.5-0.2-0.7-0.2c-0.3,0-0.5-0.1-0.7-0.1s-0.3-0.2-0.5-0.3c-0.1-0.1-0.1-0.2,0-0.3
		c0.1-0.1,0.2-0.1,0.4-0.1h0.5c0.3,0,0.5,0,0.8,0s0.5,0,0.8,0c0.4,0,0.7,0,1,0s0.7,0,1,0h0.7c0.2,0,0.5,0,0.7,0s0.5,0,0.7,0
		c0.9,0,1.8,0,2.7,0.1s1.8,0.3,2.5,0.6c0.8,0.3,1.4,0.8,1.9,1.4c0.5,0.6,0.8,1.5,0.8,2.5c0,0.5-0.1,1.1-0.3,1.6s-0.5,1-0.8,1.5
		s-0.7,0.9-1,1.4c-0.4,0.4-0.8,0.8-1.2,1.2c0.3,0.3,0.7,0.7,1,1.1s0.7,0.8,1,1.2c0.6,0.7,1.1,1.4,1.8,2c0.6,0.7,1.3,1.3,1.9,1.9
		c0.7,0.6,1.3,1,2,1.3s1.4,0.5,2.1,0.4L260,25C259.1,25.4,258.2,25.5,257.2,25.5z M249.6,10.3c-0.2-0.6-0.5-1.1-0.9-1.5
		s-0.8-0.8-1.4-1.1c-0.5-0.3-1.1-0.4-1.8-0.4c-0.6,0-1.1,0.1-1.6,0.2v8.3c0.4,0,0.8,0.1,1.2,0.1s0.8,0,1.2,0c1.1,0,2-0.3,2.6-1
		s0.9-1.6,0.9-2.8C249.9,11.5,249.8,10.9,249.6,10.3z"/>
</g>
<path class="st0" d="M132,19.8c0,2.7-2.2,4.8-4.8,4.8c-2.7,0-4.8-2.2-4.8-4.8c0-2.7,2.2-4.8,4.8-4.8C129.8,15,132,17.2,132,19.8z"/>
<path class="st0" d="M159.3,19.8c0,2.7-2.2,4.8-4.8,4.8c-2.7,0-4.8-2.2-4.8-4.8c0-2.7,2.2-4.8,4.8-4.8
	C157.1,15,159.3,17.2,159.3,19.8z"/>
<path class="st0" d="M123.7,11.4c0,2-1.6,3.6-3.6,3.6s-3.6-1.6-3.6-3.6s1.6-3.6,3.6-3.6C122.1,7.9,123.7,9.5,123.7,11.4z"/>
<path class="st0" d="M164.6,11.4c0,2-1.6,3.6-3.6,3.6s-3.6-1.6-3.6-3.6s1.6-3.6,3.6-3.6C163,7.9,164.6,9.5,164.6,11.4z"/>
<path class="st0" d="M146.9,24.7c0,3.2-2.6,5.9-5.9,5.9c-3.2,0-5.9-2.6-5.9-5.9c0-3.2,2.6-5.9,5.9-5.9
	C144.2,18.8,146.9,21.4,146.9,24.7z"/>
<path class="st0" d="M123.9,2.6c0,1.2-1,2.2-2.2,2.2s-2.2-1-2.2-2.2s1-2.2,2.2-2.2C122.9,0.4,123.9,1.4,123.9,2.6z"/>
<path class="st0" d="M161.9,2.6c0,1.2-1,2.2-2.2,2.2s-2.2-1-2.2-2.2s1-2.2,2.2-2.2C160.9,0.4,161.9,1.4,161.9,2.6z"/>
</svg>
