<?xml version="1.0" encoding="utf-8"?>
<!-- Generator: Adobe Illustrator 23.0.4, SVG Export Plug-In . SVG Version: 6.00 Build 0)  -->
<svg version="1.1" id="Réteg_1" xmlns="http://www.w3.org/2000/svg" xmlns:xlink="http://www.w3.org/1999/xlink" x="0px" y="0px"
	 viewBox="0 0 260 32" style="enable-background:new 0 0 260 32;" xml:space="preserve">
<style type="text/css">
	.st0{fill:#BBBBBB;}
</style>
<g>
	<path class="st0" d="M14.5,21.6c-0.3,0.6-0.7,1.2-1.2,1.6c-0.5,0.5-1.1,0.8-1.7,1.2c-0.6,0.3-1.3,0.5-2,0.6h0
		c-0.1,0-0.3,0.1-0.4,0.1c-0.1,0-0.3,0-0.5,0H8.6v0c-0.7,0-1.3,0-2,0c-0.6,0-1.3,0-2,0c-0.6,0-1.3,0-2-0.1c-0.7,0-1.4,0-2,0
		c-0.2,0-0.4-0.1-0.4-0.3c0-0.2,0.1-0.3,0.3-0.3c0.3-0.1,0.6-0.2,0.9-0.3c0.2-0.1,0.4-0.2,0.5-0.3c0.1-0.1,0.2-0.3,0.2-0.6
		c0-0.3,0.1-0.6,0.1-1v-14c0-0.2-0.1-0.4-0.2-0.6C1.8,7.4,1.7,7.3,1.5,7.1C1.3,7,1.1,6.9,0.9,6.8C0.6,6.8,0.4,6.7,0.3,6.7
		C0.1,6.7,0,6.6,0,6.4c0-0.2,0.2-0.3,0.4-0.3c0.2,0,0.3,0,0.5,0.1s0.3,0,0.4,0c0.4,0,0.8,0,1.2,0c0.4,0,0.8-0.1,1.2-0.1
		C4.1,6,4.6,5.9,5,5.9c0.4,0,0.9-0.1,1.3-0.1c0.6,0,1.3,0.1,2.1,0.2c0.8,0.1,1.5,0.4,2.1,0.7c0.7,0.3,1.2,0.8,1.7,1.3
		c0.5,0.6,0.7,1.2,0.7,2c0,0.8-0.3,1.6-0.8,2.3c-0.5,0.7-1.1,1.3-1.7,1.9c0.6,0.2,1.2,0.4,1.7,0.7c0.5,0.3,1,0.7,1.4,1.1
		c0.4,0.4,0.7,0.9,1,1.5c0.2,0.6,0.4,1.2,0.4,1.9C14.9,20.3,14.8,20.9,14.5,21.6z M9,8.1C8.4,7.5,7.6,7.2,6.7,7.2
		c-0.4,0-0.8,0.1-1.3,0.2v6.5l1.1,0c1,0,1.9-0.2,2.5-0.8c0.6-0.6,0.9-1.4,0.9-2.5C9.9,9.6,9.6,8.8,9,8.1z M11.4,17.9
		c-0.3-0.6-0.8-1.1-1.4-1.6c-0.6-0.4-1.2-0.7-1.9-0.9c-0.7-0.2-1.4-0.3-2.1-0.2l-0.6,0V22c0,0.3,0.1,0.6,0.3,0.8
		c0.2,0.2,0.4,0.4,0.7,0.6c0.3,0.1,0.6,0.3,0.9,0.3c0.3,0.1,0.6,0.1,0.8,0.1c0.5,0,1-0.1,1.5-0.3c0.5-0.2,0.9-0.4,1.2-0.8
		c0.3-0.3,0.6-0.7,0.8-1.2c0.2-0.5,0.3-1,0.3-1.5C11.9,19.3,11.8,18.6,11.4,17.9z"/>
	<path class="st0" d="M23.8,25.2c-0.4,0-0.8,0-1.2,0c-0.4,0-0.8,0-1.3,0l-1.3,0c-0.2,0-0.4,0-0.7,0c-0.3,0-0.6,0-0.9,0.1
		c-0.3,0-0.6,0-0.9,0c-0.3,0-0.5-0.1-0.7-0.1c-0.2-0.1-0.3-0.2-0.2-0.4c0.1-0.2,0.2-0.3,0.4-0.3c0.2,0,0.8-0.1,0.9-0.3
		c0.1-0.1,0.2-0.3,0.3-0.6c0.1-0.2,0.1-0.5,0.2-0.7c0-0.2,0.1-0.4,0.1-0.6V8.2c0-0.5-0.2-0.8-0.6-1c-0.4-0.2-0.8-0.3-1.2-0.4
		c-0.2,0-0.3-0.1-0.3-0.3c0-0.2,0.1-0.3,0.4-0.3c0.6,0,1.1,0,1.7,0c0.6,0,1.1,0.1,1.6,0.1c0.5,0,1,0,1.6-0.1c0.5,0,1,0,1.6,0
		c0.2,0,0.3,0.1,0.3,0.3c0,0.2-0.1,0.3-0.3,0.3c-0.5,0.1-0.9,0.2-1.2,0.3c-0.3,0.1-0.5,0.5-0.5,1v14c0,0.1,0,0.2,0.1,0.4
		c0,0.2,0.1,0.4,0.1,0.6c0,0.2,0.1,0.4,0.2,0.6c0.1,0.2,0.1,0.3,0.2,0.4c0.1,0,0.2,0,0.3,0.1c0.1,0,0.3,0,0.4,0c0.3,0,0.5,0,0.7,0.1
		c0.2,0,0.4,0.1,0.6,0.3L23.8,25.2z"/>
	<path class="st0" d="M33.2,7.3c-0.3,0.2-0.5,0.5-0.5,1v15.1c0,0.9-0.2,1.8-0.6,2.6c-0.4,0.8-0.9,1.5-1.5,2.2
		c-0.6,0.7-1.3,1.2-2.1,1.8c-0.8,0.5-1.5,1-2.3,1.3c-0.2,0-0.3,0-0.4-0.1c-0.1-0.1-0.1-0.2-0.1-0.3c0.1-0.2,0.2-0.4,0.4-0.7
		c0.2-0.2,0.4-0.5,0.7-0.7c0.3-0.2,0.6-0.5,0.9-0.8c0.3-0.3,0.6-0.7,0.9-1.2c0.3-0.5,0.5-1.1,0.7-1.8c0.2-0.7,0.3-1.6,0.3-2.6V8.3
		c0-0.6-0.1-0.9-0.3-1c-0.2-0.1-0.4-0.2-0.6-0.2c-0.3,0-0.5,0-0.7,0c-0.2,0-0.4-0.1-0.5-0.3c-0.1-0.1-0.1-0.2-0.1-0.3
		c0.1-0.1,0.2-0.1,0.4-0.1H29c0.9,0,1.8,0,2.7,0c0.9,0,1.8,0,2.7,0l0,0.6C34,7,33.6,7.1,33.2,7.3z"/>
	<path class="st0" d="M57.8,20.2c-0.7,1.2-1.6,2.1-2.7,2.9c-1.1,0.8-2.3,1.4-3.7,1.8c-1.4,0.4-2.8,0.6-4.1,0.6
		c-1.4,0-2.7-0.3-4.1-0.8c-1.3-0.5-2.5-1.2-3.5-2.1c-1-0.9-1.8-2-2.5-3.2c-0.6-1.2-0.9-2.6-0.9-4c0-1.6,0.3-3,1-4.2
		C38,10,38.9,8.9,40,8.1c1.1-0.8,2.3-1.5,3.7-1.9c1.4-0.4,2.8-0.7,4.3-0.7c1.4,0,2.8,0.3,4.1,0.9c1.3,0.6,2.4,1.3,3.4,2.3
		c1,1,1.8,2.1,2.4,3.4c0.6,1.3,0.9,2.7,0.9,4.1C58.8,17.7,58.5,19,57.8,20.2z M55.1,12.7c-0.4-1.1-1-2.1-1.7-2.9
		c-0.7-0.8-1.6-1.5-2.6-2c-1-0.5-2.2-0.7-3.4-0.7c-1.2,0-2.2,0.2-3.2,0.6c-1,0.4-1.8,0.9-2.5,1.6c-0.7,0.7-1.3,1.5-1.6,2.5
		c-0.4,1-0.6,2-0.6,3.2c0,1.2,0.2,2.4,0.6,3.5c0.4,1.1,1,2.1,1.7,2.9c0.7,0.8,1.6,1.5,2.7,2c1,0.5,2.2,0.7,3.5,0.7
		c1.2,0,2.2-0.2,3.2-0.6c1-0.4,1.8-0.9,2.5-1.6c0.7-0.7,1.2-1.5,1.6-2.5c0.4-1,0.6-2.1,0.6-3.2C55.7,14.9,55.5,13.8,55.1,12.7z"/>
	<path class="st0" d="M80.6,7.2c-0.4,0.2-0.5,0.5-0.5,1v9.6c0,1.2-0.2,2.2-0.7,3.2c-0.4,1-1,1.8-1.8,2.5C76.9,24.1,76,24.7,75,25
		c-1,0.4-2.1,0.6-3.2,0.6c-0.9,0-1.9-0.1-2.9-0.4c-1-0.2-2-0.6-2.8-1.1c-0.9-0.5-1.6-1.1-2.1-1.9c-0.6-0.8-0.9-1.7-0.9-2.7v0
		c0-0.2,0-0.4,0-0.6c0-0.2-0.1-0.3-0.1-0.5V8.2c0-0.6-0.1-0.9-0.4-1C62.2,7.1,61.9,7,61.6,7c-0.3,0-0.5-0.1-0.7-0.1
		c-0.2,0-0.3-0.2-0.4-0.4c0-0.2,0.1-0.3,0.4-0.3H62c1.9,0,3.8,0.1,5.7,0.2c0.2,0,0.3,0.1,0.3,0.3c0,0.2-0.1,0.3-0.3,0.3
		c-0.5,0-0.9,0.1-1.2,0.3c-0.3,0.2-0.5,0.5-0.5,1v5.4c0,0.9,0,1.8,0,2.8c0,0.9,0,1.8,0,2.7c0,0.8,0.2,1.5,0.5,2.1
		c0.3,0.6,0.7,1.1,1.3,1.5c0.5,0.4,1.1,0.7,1.8,0.9c0.7,0.2,1.4,0.3,2.1,0.3c0.7,0,1.5-0.1,2.2-0.3c0.7-0.2,1.3-0.5,1.9-1
		c0.5-0.4,1-1,1.3-1.6c0.3-0.6,0.5-1.3,0.5-2.2c0-0.9,0-1.8,0-2.7c0-0.9,0-1.8,0-2.7c0-0.9,0-1.8,0-2.7c0-0.9,0-1.8,0-2.7
		c0-0.3,0-0.5-0.1-0.7c-0.1-0.2-0.2-0.3-0.3-0.4c-0.1-0.1-0.3-0.1-0.4-0.2c-0.1,0-0.3,0-0.4-0.1c-0.3,0-0.5-0.1-0.7-0.1
		c-0.2,0-0.3-0.2-0.4-0.4c0-0.2,0.1-0.3,0.4-0.3c1,0,2.1,0,3.1,0c1,0,2,0.1,3,0.1l0,0.6C81.3,6.9,81,7.1,80.6,7.2z"/>
	<path class="st0" d="M103.7,25.1c-0.5,0-1,0-1.4,0c-0.5,0-0.9,0-1.4,0c-0.5,0-1,0-1.4-0.1c-0.5,0-0.9,0-1.4,0
		c-0.2,0-0.3-0.1-0.4-0.2c-0.1-0.1,0-0.2,0.2-0.4c0.1-0.1,0.1-0.2,0.1-0.3c0-0.1-0.1-0.2-0.2-0.5c-0.2-0.3-0.4-0.6-0.6-1.1
		c-0.3-0.4-0.6-0.9-0.9-1.4c-0.3-0.5-0.7-1-1-1.5c-0.3-0.5-0.7-0.9-1-1.4c-0.3-0.4-0.5-0.8-0.7-1.1c-0.1,0.2-0.2,0.4-0.4,0.6
		c-0.1,0.2-0.3,0.4-0.5,0.7c-0.3,0.5-0.7,1-1,1.5c-0.4,0.5-0.7,1.1-1.1,1.6c-0.3,0.5-0.6,1-0.8,1.5c-0.2,0.5-0.4,0.8-0.4,1.1
		c0.1,0.1,0.2,0.1,0.3,0.1c0.2,0,0.4,0,0.6,0.1c0.2,0.1,0.3,0.2,0.2,0.3c0,0.2-0.1,0.2-0.3,0.3c-0.9,0-1.7,0.1-2.6,0.1
		c-0.8,0-1.7,0-2.5,0h-0.8c-0.2,0-0.4-0.1-0.4-0.3c0-0.2,0.1-0.3,0.3-0.3c0.6,0,1.1-0.2,1.7-0.6c0.6-0.4,1.1-0.9,1.6-1.5
		c0.5-0.6,1-1.3,1.5-2c0.5-0.7,1-1.5,1.4-2.1c0.3-0.5,0.7-1,0.9-1.5c0.3-0.4,0.6-0.9,0.9-1.2c-0.3-0.4-0.6-0.9-1-1.5
		c-0.4-0.6-0.7-1.1-0.9-1.5c-0.4-0.6-0.8-1.2-1.2-1.8C88.7,10,88.3,9.5,87.9,9c-0.4-0.5-0.9-1-1.5-1.3c-0.5-0.4-1.1-0.6-1.7-0.7
		c-0.2,0-0.3-0.1-0.3-0.3c0-0.2,0.1-0.3,0.3-0.3c0.5-0.1,0.9-0.1,1.5-0.1c0.5,0,1.1-0.1,1.6-0.1l1.3,0c0.4,0,1,0,1.4,0
		c0.4,0,0.7,0,1.1,0c0.2,0,0.4,0.1,0.4,0.2c0,0.2,0,0.3-0.2,0.3c-0.2,0.1-0.4,0.2-0.6,0.3c-0.2,0.1-0.3,0.3-0.3,0.6
		c0,0.3,0.2,0.8,0.7,1.4c0.4,0.6,0.9,1.3,1.4,2c0.3,0.4,0.5,0.8,0.8,1.1c0.3,0.3,0.5,0.7,0.7,1c0.2-0.3,0.4-0.6,0.7-0.9
		c0.3-0.3,0.6-0.7,0.9-1.1c0.3-0.3,0.6-0.7,0.8-1c0.3-0.3,0.5-0.7,0.7-1c0.2-0.3,0.4-0.6,0.5-0.8c0.1-0.2,0.2-0.4,0.2-0.6
		c0-0.3-0.1-0.5-0.4-0.6c-0.3-0.1-0.6-0.2-0.8-0.3c-0.2,0-0.3-0.1-0.3-0.3c0-0.2,0.1-0.3,0.4-0.3c0.5,0,1-0.1,1.4-0.1
		c0.5,0,1,0,1.5,0c0.5,0,1,0,1.5,0c0.5,0,1,0.1,1.5,0.2c0.2,0,0.3,0.2,0.3,0.3c0,0.2-0.2,0.3-0.4,0.3c-0.5,0-1,0.2-1.5,0.6
		c-0.5,0.4-1,0.8-1.5,1.3c-0.5,0.5-1,1.1-1.4,1.8c-0.5,0.6-0.9,1.3-1.3,1.9c-0.3,0.5-0.6,0.9-0.9,1.3c-0.3,0.4-0.5,0.7-0.8,1
		c0.3,0.5,0.7,1,1.1,1.5c0.4,0.6,0.7,1.1,1.1,1.7c0.4,0.7,0.9,1.4,1.3,2.1c0.5,0.7,1,1.4,1.5,2c0.5,0.6,1,1.1,1.6,1.6
		c0.5,0.4,1.1,0.7,1.8,0.9L103.7,25.1z"/>
	<path class="st0" d="M193.1,25c-0.6,0-1.1,0-1.7,0c-0.4,0-0.8,0-1.2,0c-0.4,0-0.8,0-1.2-0.1c-0.2,0-0.3-0.1-0.4-0.2
		c-0.1-0.1,0-0.2,0.1-0.3l0.3-0.4c-0.5-1.1-0.9-2.1-1.4-3.1c-0.4-1-0.9-2-1.4-3.1h-5.6c-0.2,0.4-0.4,0.8-0.6,1.4
		c-0.2,0.6-0.5,1.2-0.7,1.7c-0.2,0.6-0.4,1.1-0.6,1.6c-0.2,0.5-0.2,0.8-0.2,1.1c0,0.3,0.1,0.4,0.4,0.5c0.3,0.1,0.6,0.1,0.8,0.2
		c0.2,0,0.3,0.1,0.3,0.3c0,0.2-0.1,0.3-0.4,0.3l-6.1-0.1l0.1-0.6c0.2,0.1,0.5,0.1,0.7,0c0.3-0.1,0.5-0.2,0.7-0.4
		c0.2-0.2,0.4-0.4,0.6-0.7c0.2-0.3,0.3-0.5,0.5-0.7c0.5-1.1,0.9-2.2,1.4-3.4c0.5-1.2,1-2.3,1.4-3.4c0.7-1.6,1.3-3.3,2-4.9
		c0.7-1.6,1.4-3.2,2.1-4.8c0.1-0.2,0.3-0.2,0.5-0.1c0.2,0.1,0.3,0.2,0.5,0.5c0.2,0.2,0.3,0.5,0.5,0.8c0.2,0.3,0.3,0.6,0.5,0.9
		c0.1,0.3,0.3,0.6,0.4,0.9v0c0.1,0.2,0.1,0.3,0.2,0.4c0,0.1,0.1,0.2,0.1,0.3v0l1.5,3.6c0.7,1.7,1.4,3.3,2.2,5
		c0.7,1.7,1.5,3.3,2.4,4.9c0.3,0.5,0.7,0.9,1.1,1c0.5,0.2,1,0.3,1.5,0.3v0.6C194.2,25,193.6,25,193.1,25z M183.5,10.6
		c-0.4,1-0.7,2-1.1,2.9c-0.3,0.9-0.7,1.9-1.1,2.9h4.4L183.5,10.6z"/>
	<path class="st0" d="M213.3,22.7c-0.1,0.6-0.3,1.7-0.4,1.8c0,0.1-0.1,0.6-0.3,0.6c-0.2,0-0.9,0-0.9,0c-2.4,0-4.9,0-7.3,0
		c-2.4,0-4.8,0-7.3-0.1c-0.2,0-0.3-0.1-0.4-0.2c-0.1-0.1-0.1-0.2,0-0.3c1.2-1.9,2.5-3.8,3.9-5.6c1.4-1.8,2.7-3.6,4.1-5.5
		c0.8-1,1.5-2,2.2-2.9c0.7-0.9,1.5-1.9,2.2-2.9c-0.1,0-0.1,0-0.1,0c0,0-0.1,0-0.1,0c-0.1,0-0.1,0-0.2,0c-0.1,0-0.2,0-0.2,0
		c-1,0-2.1,0-3.1,0c-1,0-2.1,0-3.1,0c-0.7,0-1.4,0.3-2.1,0.8c-0.7,0.5-1.3,1.1-1.8,1.6l-0.3,0.3c-0.1,0.1-0.3,0.1-0.4,0.1
		c-0.2-0.1-0.2-0.2-0.2-0.3c0.1-0.7,0.2-1.3,0.3-1.9c0.1-0.6,0.2-1.2,0.3-1.8c0-0.1,0-0.1,0-0.2c0-0.1,0-0.1,0-0.2
		c0.1-0.2,0.3-0.3,0.5-0.2c0.4,0.1,0.9,0.2,1.3,0.3c0.5,0.1,0.9,0.1,1.3,0.1h11.7c0.2,0,0.3,0.1,0.4,0.2c0.1,0.1,0.1,0.2,0,0.3
		c-0.5,0.8-1.1,1.8-1.9,2.9c-0.8,1.1-1.6,2.2-2.4,3.3c-0.8,1.1-1.7,2.2-2.5,3.3c-0.8,1.1-1.5,2-2.1,2.8c-0.6,0.8-1.2,1.5-1.8,2.3
		c-0.6,0.7-1.2,1.5-1.8,2.3c0,0,0.1,0,0.2,0c0.1,0,0.2,0,0.2,0c0.1,0,0.1,0,0.2,0c0.1,0,0.2,0,0.2,0l7.3,0c0.4,0,0.7-0.1,1.1-0.3
		c0.4-0.2,0.7-0.4,1-0.6c0.3-0.3,0.6-0.5,0.9-0.9c0.3-0.3,0.5-0.6,0.7-0.9c0.1-0.1,0.3-0.2,0.5-0.1c0.2,0,0.3,0.1,0.3,0.3
		C213.5,21.5,213.4,22.1,213.3,22.7z"/>
	<path class="st0" d="M235.4,7.2c-0.4,0.2-0.5,0.5-0.5,1v9.6c0,1.2-0.2,2.2-0.7,3.2c-0.4,1-1,1.8-1.8,2.5c-0.7,0.7-1.6,1.2-2.6,1.6
		c-1,0.4-2.1,0.6-3.2,0.6c-0.9,0-1.9-0.1-2.9-0.4c-1-0.2-2-0.6-2.8-1.1c-0.9-0.5-1.6-1.1-2.1-1.9c-0.6-0.8-0.9-1.7-0.9-2.7v0
		c0-0.2,0-0.4,0-0.6c0-0.2-0.1-0.3-0.1-0.5V8.2c0-0.6-0.1-0.9-0.4-1C217,7.1,216.7,7,216.4,7c-0.3,0-0.5-0.1-0.7-0.1
		c-0.2,0-0.3-0.2-0.4-0.4c0-0.2,0.1-0.3,0.4-0.3h1.1c1.9,0,3.8,0.1,5.7,0.2c0.2,0,0.3,0.1,0.3,0.3c0,0.2-0.1,0.3-0.3,0.3
		c-0.5,0-0.9,0.1-1.2,0.3c-0.3,0.2-0.5,0.5-0.5,1v5.4c0,0.9,0,1.8,0,2.8c0,0.9,0,1.8,0,2.7c0,0.8,0.2,1.5,0.5,2.1
		c0.3,0.6,0.8,1.1,1.3,1.5c0.5,0.4,1.1,0.7,1.8,0.9c0.7,0.2,1.4,0.3,2.1,0.3c0.7,0,1.5-0.1,2.2-0.3c0.7-0.2,1.3-0.5,1.9-1
		c0.5-0.4,1-1,1.3-1.6c0.3-0.6,0.5-1.3,0.5-2.2c0-0.9,0-1.8,0-2.7c0-0.9,0-1.8,0-2.7c0-0.9,0-1.8,0-2.7c0-0.9,0-1.8,0-2.7
		c0-0.3,0-0.5-0.1-0.7c-0.1-0.2-0.2-0.3-0.3-0.4c-0.1-0.1-0.2-0.1-0.4-0.2c-0.2,0-0.3,0-0.4-0.1c-0.3,0-0.5-0.1-0.7-0.1
		c-0.2,0-0.4-0.2-0.4-0.4c0-0.2,0.1-0.3,0.4-0.3c1,0,2.1,0,3.1,0c1,0,2,0.1,3,0.1l0,0.6C236.1,6.9,235.8,7.1,235.4,7.2z"/>
	<path class="st0" d="M257.2,25.5c-0.8,0-1.5-0.1-2.2-0.4c-0.6-0.3-1.2-0.6-1.8-1c-0.5-0.4-1-0.9-1.5-1.4c-0.5-0.5-0.9-1.1-1.3-1.6
		c-0.4-0.5-0.8-1-1.2-1.5c-0.4-0.5-0.8-0.9-1.2-1.2c-0.4-0.3-0.9-0.6-1.5-0.6c-0.6-0.1-1.2-0.1-1.7-0.1c-0.2,0-0.3,0-0.4,0
		c-0.1,0-0.2,0-0.4,0c0,0,0,4.1,0,4.6c0,0.5,0.1,0.8,0.2,1.3c0.1,0.5,0.3,0.6,0.3,0.7c0.1,0,0.1,0.1,0.3,0.1c0.2,0,0.7,0.1,1.1,0.1
		c0.2,0,0.5,0.2,0.6,0.3c0.1,0.1,0.2,0.2,0.2,0.3c-0.1,0.1-0.2,0.2-0.4,0.2c-1.2,0-2.3,0-3.5,0c-1.2,0-2.3-0.1-3.5-0.1
		c-0.2,0-0.3-0.1-0.3-0.3c0-0.2,0.1-0.3,0.3-0.3c0.4,0,0.7-0.1,0.9-0.2c0.2-0.1,0.4-0.2,0.5-0.3c0.1-0.1,0.2-0.3,0.2-0.6
		c0-0.3,0-0.6,0-1.1v-14c0-0.6-0.1-0.9-0.4-1c-0.2-0.1-0.5-0.2-0.7-0.2c-0.3,0-0.5-0.1-0.7-0.1c-0.2,0-0.3-0.2-0.5-0.3
		c-0.1-0.1-0.1-0.2,0-0.3c0.1-0.1,0.2-0.1,0.4-0.1h0.5c0.3,0,0.5,0,0.8,0c0.3,0,0.5,0,0.8,0c0.4,0,0.7,0,1,0c0.3,0,0.7,0,1,0h0.7
		c0.2,0,0.5,0,0.7,0c0.2,0,0.5,0,0.7,0c0.9,0,1.8,0,2.7,0.1c0.9,0.1,1.8,0.3,2.5,0.6c0.8,0.3,1.4,0.8,1.9,1.4
		c0.5,0.6,0.8,1.5,0.8,2.5c0,0.5-0.1,1.1-0.3,1.6c-0.2,0.5-0.5,1-0.8,1.5c-0.3,0.5-0.7,0.9-1,1.4c-0.4,0.4-0.8,0.8-1.2,1.2
		c0.3,0.3,0.7,0.7,1,1.1c0.3,0.4,0.7,0.8,1,1.2c0.6,0.7,1.1,1.4,1.8,2c0.6,0.7,1.3,1.3,1.9,1.9c0.7,0.6,1.3,1,2,1.3
		c0.7,0.3,1.4,0.5,2.1,0.4L260,25C259.1,25.4,258.2,25.5,257.2,25.5z M249.6,10.3c-0.2-0.6-0.5-1.1-0.9-1.5
		c-0.4-0.4-0.8-0.8-1.4-1.1c-0.5-0.3-1.1-0.4-1.8-0.4c-0.6,0-1.1,0.1-1.6,0.2v8.3c0.4,0,0.8,0.1,1.2,0.1c0.4,0,0.8,0,1.2,0
		c1.1,0,2-0.3,2.6-1c0.6-0.7,0.9-1.6,0.9-2.8C249.9,11.5,249.8,10.9,249.6,10.3z"/>
</g>
<path class="st0" d="M133,19.8c0,2.7-2.2,4.8-4.8,4.8c-2.7,0-4.8-2.2-4.8-4.8c0-2.7,2.2-4.8,4.8-4.8C130.8,15,133,17.2,133,19.8z"/>
<path class="st0" d="M160.3,19.8c0,2.7-2.2,4.8-4.8,4.8c-2.7,0-4.8-2.2-4.8-4.8c0-2.7,2.2-4.8,4.8-4.8
	C158.1,15,160.3,17.2,160.3,19.8z"/>
<path class="st0" d="M124.7,11.4c0,2-1.6,3.6-3.6,3.6c-2,0-3.6-1.6-3.6-3.6c0-2,1.6-3.6,3.6-3.6C123.1,7.9,124.7,9.5,124.7,11.4z"/>
<path class="st0" d="M165.6,11.4c0,2-1.6,3.6-3.6,3.6c-2,0-3.6-1.6-3.6-3.6c0-2,1.6-3.6,3.6-3.6C164,7.9,165.6,9.5,165.6,11.4z"/>
<path class="st0" d="M147.9,24.7c0,3.2-2.6,5.9-5.9,5.9c-3.2,0-5.9-2.6-5.9-5.9c0-3.2,2.6-5.9,5.9-5.9
	C145.2,18.8,147.9,21.4,147.9,24.7z"/>
<path class="st0" d="M124.9,2.6c0,1.2-1,2.2-2.2,2.2c-1.2,0-2.2-1-2.2-2.2c0-1.2,1-2.2,2.2-2.2C123.9,0.4,124.9,1.4,124.9,2.6z"/>
<path class="st0" d="M162.9,2.6c0,1.2-1,2.2-2.2,2.2c-1.2,0-2.2-1-2.2-2.2c0-1.2,1-2.2,2.2-2.2C161.9,0.4,162.9,1.4,162.9,2.6z"/>
</svg>
